<mxfile host="Electron" agent="Mozilla/5.0 (Windows NT 10.0; Win64; x64) AppleWebKit/537.36 (KHTML, like Gecko) draw.io/28.0.6 Chrome/138.0.7204.100 Electron/37.2.3 Safari/537.36" version="28.0.6">
  <diagram name="PÃ¡gina-1" id="dCwIO3QqZjJFvoNeNJwR">
    <mxGraphModel dx="1830" dy="1031" grid="0" gridSize="10" guides="1" tooltips="1" connect="1" arrows="1" fold="1" page="1" pageScale="1" pageWidth="827" pageHeight="1169" math="0" shadow="0">
      <root>
        <mxCell id="0" />
        <mxCell id="1" parent="0" />
        <mxCell id="9SuX9ZwHMjtxl8Abcy5n-136" value="" style="rounded=1;whiteSpace=wrap;html=1;" vertex="1" parent="1">
          <mxGeometry x="36" y="31" width="1116" height="828" as="geometry" />
        </mxCell>
        <mxCell id="9SuX9ZwHMjtxl8Abcy5n-120" value="" style="rounded=1;whiteSpace=wrap;html=1;fillColor=#bac8d3;strokeColor=#23445d;" vertex="1" parent="1">
          <mxGeometry x="289" y="685" width="698" height="148" as="geometry" />
        </mxCell>
        <mxCell id="9SuX9ZwHMjtxl8Abcy5n-118" value="" style="rounded=1;whiteSpace=wrap;html=1;fillColor=#dae8fc;strokeColor=#6c8ebf;" vertex="1" parent="1">
          <mxGeometry x="433" y="316" width="468" height="333" as="geometry" />
        </mxCell>
        <mxCell id="9SuX9ZwHMjtxl8Abcy5n-116" value="" style="rounded=1;whiteSpace=wrap;html=1;fillColor=#f8cecc;strokeColor=#b85450;" vertex="1" parent="1">
          <mxGeometry x="570" y="479.5" width="310" height="151" as="geometry" />
        </mxCell>
        <mxCell id="9SuX9ZwHMjtxl8Abcy5n-107" style="edgeStyle=orthogonalEdgeStyle;rounded=0;orthogonalLoop=1;jettySize=auto;html=1;" edge="1" parent="1" source="9SuX9ZwHMjtxl8Abcy5n-68" target="9SuX9ZwHMjtxl8Abcy5n-101">
          <mxGeometry relative="1" as="geometry">
            <Array as="points">
              <mxPoint x="969" y="176" />
              <mxPoint x="969" y="309" />
            </Array>
          </mxGeometry>
        </mxCell>
        <mxCell id="9SuX9ZwHMjtxl8Abcy5n-68" value="" style="rounded=1;whiteSpace=wrap;html=1;fillColor=#dae8fc;strokeColor=#6c8ebf;" vertex="1" parent="1">
          <mxGeometry x="450.75" y="74" width="283.5" height="203" as="geometry" />
        </mxCell>
        <mxCell id="9SuX9ZwHMjtxl8Abcy5n-67" value="" style="rounded=1;whiteSpace=wrap;html=1;fillColor=#f5f5f5;strokeColor=#666666;fontColor=#333333;" vertex="1" parent="1">
          <mxGeometry x="619.25" y="191.23999999999995" width="87" height="76.06" as="geometry" />
        </mxCell>
        <mxCell id="9SuX9ZwHMjtxl8Abcy5n-61" value="" style="rounded=1;whiteSpace=wrap;html=1;fillColor=#f5f5f5;strokeColor=#666666;fontColor=#333333;" vertex="1" parent="1">
          <mxGeometry x="619.25" y="98.77000000000001" width="87" height="76.06" as="geometry" />
        </mxCell>
        <mxCell id="9SuX9ZwHMjtxl8Abcy5n-54" value="" style="rounded=1;whiteSpace=wrap;html=1;fillColor=#f5f5f5;fontColor=#333333;strokeColor=#666666;" vertex="1" parent="1">
          <mxGeometry x="57" y="172" width="120" height="453" as="geometry" />
        </mxCell>
        <mxCell id="9SuX9ZwHMjtxl8Abcy5n-69" style="edgeStyle=orthogonalEdgeStyle;rounded=0;orthogonalLoop=1;jettySize=auto;html=1;entryX=0;entryY=0.5;entryDx=0;entryDy=0;" edge="1" parent="1" source="9SuX9ZwHMjtxl8Abcy5n-32" target="9SuX9ZwHMjtxl8Abcy5n-61">
          <mxGeometry relative="1" as="geometry" />
        </mxCell>
        <mxCell id="9SuX9ZwHMjtxl8Abcy5n-70" style="edgeStyle=orthogonalEdgeStyle;rounded=0;orthogonalLoop=1;jettySize=auto;html=1;entryX=0;entryY=0.5;entryDx=0;entryDy=0;" edge="1" parent="1" source="9SuX9ZwHMjtxl8Abcy5n-32" target="9SuX9ZwHMjtxl8Abcy5n-67">
          <mxGeometry relative="1" as="geometry" />
        </mxCell>
        <mxCell id="9SuX9ZwHMjtxl8Abcy5n-64" style="edgeStyle=orthogonalEdgeStyle;rounded=0;orthogonalLoop=1;jettySize=auto;html=1;entryX=0;entryY=0.5;entryDx=0;entryDy=0;" edge="1" parent="1" source="9SuX9ZwHMjtxl8Abcy5n-5" target="9SuX9ZwHMjtxl8Abcy5n-32">
          <mxGeometry relative="1" as="geometry" />
        </mxCell>
        <mxCell id="9SuX9ZwHMjtxl8Abcy5n-87" style="edgeStyle=orthogonalEdgeStyle;rounded=0;orthogonalLoop=1;jettySize=auto;html=1;entryX=0;entryY=0.5;entryDx=0;entryDy=0;" edge="1" parent="1" source="9SuX9ZwHMjtxl8Abcy5n-5" target="9SuX9ZwHMjtxl8Abcy5n-59">
          <mxGeometry relative="1" as="geometry">
            <Array as="points">
              <mxPoint x="412" y="391" />
              <mxPoint x="412" y="531" />
            </Array>
          </mxGeometry>
        </mxCell>
        <mxCell id="9SuX9ZwHMjtxl8Abcy5n-5" value="" style="rounded=1;whiteSpace=wrap;html=1;fillColor=#f5f5f5;fontColor=#333333;strokeColor=#666666;" vertex="1" parent="1">
          <mxGeometry x="271" y="311" width="86" height="160.5" as="geometry" />
        </mxCell>
        <mxCell id="9SuX9ZwHMjtxl8Abcy5n-4" value="Pub/Sub" style="sketch=0;html=1;verticalAlign=top;labelPosition=center;verticalLabelPosition=bottom;align=center;spacingTop=-6;fontSize=11;fontStyle=1;fontColor=#999999;shape=image;aspect=fixed;imageAspect=0;image=data:image/svg+xml,PHN2ZyB4bWxucz0iaHR0cDovL3d3dy53My5vcmcvMjAwMC9zdmciIHhtbG5zOnY9Imh0dHBzOi8vdmVjdGEuaW8vbmFubyIgd2lkdGg9IjE4LjMxOTk5OTY5NDgyNDIyIiBoZWlnaHQ9IjIwLjAwMDAwMTkwNzM0ODYzMyIgdmlld0JveD0iMCAwIDE4LjMxOTk5OTY5NDgyNDIyIDIwLjAwMDAwMTkwNzM0ODYzMyI+JiN4YTsJPHN0eWxlIHR5cGU9InRleHQvY3NzIj4mI3hhOwkuc3Qwe2ZpbGw6IzY2OWRmNjt9JiN4YTsJLnN0MXtmaWxsOiM0Mjg1ZjQ7fSYjeGE7CS5zdDJ7ZmlsbDojYWVjYmZhO30mI3hhOwk8L3N0eWxlPiYjeGE7CTxkZWZzPiYjeGE7CQk8ZmlsdGVyIGlkPSJBIiB4PSI0LjY0IiB5PSI0LjE5IiB3aWR0aD0iMTQuNzMiIGhlaWdodD0iMTIuNzYiIGZpbHRlclVuaXRzPSJ1c2VyU3BhY2VPblVzZSIgY29sb3ItaW50ZXJwb2xhdGlvbi1maWx0ZXJzPSJzUkdCIj4mI3hhOwkJCTxmZUZsb29kIGZsb29kLWNvbG9yPSIjZmZmIi8+JiN4YTsJCQk8ZmVCbGVuZCBpbj0iU291cmNlR3JhcGhpYyIvPiYjeGE7CQk8L2ZpbHRlcj4mI3hhOwkJPG1hc2sgaWQ9IkIiIHg9IjQuNjQiIHk9IjQuMTkiIHdpZHRoPSIxNC43MyIgaGVpZ2h0PSIxMi43NiIgbWFza1VuaXRzPSJ1c2VyU3BhY2VPblVzZSI+JiN4YTsJCQk8Y2lyY2xlIGN4PSIxMiIgY3k9IjEyLjIzIiByPSIzLjU4IiBmaWx0ZXI9InVybCgjQSkiLz4mI3hhOwkJPC9tYXNrPiYjeGE7CTwvZGVmcz4mI3hhOwk8ZyBjbGFzcz0ic3QwIj4mI3hhOwkJPGNpcmNsZSBjeD0iMTYuMTMiIGN5PSI2LjIxIiByPSIxLjcyIi8+JiN4YTsJCTxjaXJjbGUgY3g9IjIuMTkiIGN5PSI2LjIxIiByPSIxLjcyIi8+JiN4YTsJCTxjaXJjbGUgY3g9IjkuMTYiIGN5PSIxOC4yOCIgcj0iMS43MiIvPiYjeGE7CTwvZz4mI3hhOwk8ZyBtYXNrPSJ1cmwoI0IpIiB0cmFuc2Zvcm09InRyYW5zbGF0ZSgtMi44NCAtMikiPiYjeGE7CQk8cGF0aCB0cmFuc2Zvcm09Im1hdHJpeCguNSAtLjg3IC44NyAuNSAtNC41OSAyMC41MykiIGQ9Ik0xNC42OSAxMC4yMmgxLjU5djguMDRoLTEuNTl6IiBjbGFzcz0ic3QxIi8+JiN4YTsJCTxwYXRoIHRyYW5zZm9ybT0icm90YXRlKDMzMCA4LjUyMyAxNC4yNDQpIiBkPSJNNC40OSAxMy40NWg4LjA0djEuNTlINC40OXoiIGNsYXNzPSJzdDEiLz4mI3hhOwkJPHBhdGggZD0iTTExLjIgNC4xOWgxLjU5djguMDRIMTEuMnoiIGNsYXNzPSJzdDEiLz4mI3hhOwk8L2c+JiN4YTsJPGcgY2xhc3M9InN0MiI+JiN4YTsJCTxjaXJjbGUgY3g9IjkuMTYiIGN5PSIxMC4yMyIgcj0iMi43OCIvPiYjeGE7CQk8Y2lyY2xlIGN4PSIyLjE5IiBjeT0iMTQuMjUiIHI9IjIuMTkiLz4mI3hhOwkJPGNpcmNsZSBjeD0iMTYuMTMiIGN5PSIxNC4yNSIgcj0iMi4xOSIvPiYjeGE7CQk8Y2lyY2xlIGN4PSI5LjE2IiBjeT0iMi4xOSIgcj0iMi4xOSIvPiYjeGE7CTwvZz4mI3hhOzwvc3ZnPg==;" vertex="1" parent="1">
          <mxGeometry x="295" y="325" width="38" height="42" as="geometry" />
        </mxCell>
        <mxCell id="9SuX9ZwHMjtxl8Abcy5n-19" value="Datastream" style="sketch=0;html=1;verticalAlign=top;labelPosition=center;verticalLabelPosition=bottom;align=center;spacingTop=-6;fontSize=11;fontStyle=1;fontColor=#999999;shape=image;aspect=fixed;imageAspect=0;image=data:image/svg+xml,PHN2ZyB4bWxucz0iaHR0cDovL3d3dy53My5vcmcvMjAwMC9zdmciIGlkPSJzdmczMjM0NyIgdmVyc2lvbj0iMS4xIiB2aWV3Qm94PSIwIDAgMjY1LjgzODA0IDI0NS4zMDU1NCIgaGVpZ2h0PSIyNDUuMzA1NTRtbSIgd2lkdGg9IjI2NS44MzgwNG1tIj4mI3hhOyAgJiN4YTsgIDxkZWZzIGlkPSJkZWZzMzIzNDQiLz4mI3hhOyAgPGcgdHJhbnNmb3JtPSJ0cmFuc2xhdGUoMjYuMDAxOTQ1LC0yNC45MTAzOTEpIiBpZD0ibGF5ZXIxIj4mI3hhOyAgICA8cGF0aCBkPSJtIDQyLjE3OTY4NywzMy45Nzg1MTYgYyAtMC42NDE1MDMsMC4wMTg2IC0xLjI4NjQ4NywwLjAzODggLTEuOTM1MzIzLDAuMDU5OTIgMi4wMTg1ODUsOC44ODg3MiAyLjQ1ODk0MSwxNi40NTc5NjYgLTAuMDk3MzMsMjYuMDYyNzY0IDEyLjI5MTAzNywtMC4zNDA5NzUgMTkuMjU0OTQyLC0wLjQ0NTY3MyAyNi44NzQ0NDksMi45Mzc4NjYgbCAwLjAxOTUzLDAuMDA3OCAwLjAxOTUzLDAuMDA5OCBjIDYuMzEwNzgzLDIuNzc3OTA4IDE0LjMyNzI4NSwxMi42MDI0NyAyMS44NjcxODcsMjYuMTcxODc1IDcuNTM5OTAzLDEzLjU2OTM5OSAxNC43MTAwOCwyOS44NzM2NzkgMjQuMDc4MTMsNDMuNjQwNjE5IGwgMC4yOTEwMiwwLjQyNzczIDAuMzIyMjYsMC40MDIzNSBjIDkuODM1NCwxMi4yMzgxNSAyMy40ODA0MiwyMi43MDczNiA0OS4wODIzOCwyNi45Njg4MSAtMi4wODM5NiwtOS41MDI2NSAtMi4yMTQ2NywtMTYuMjA1NzYgLTAuMDQwOSwtMjYuMjk3OTIgLTE3LjE1OTg5LC0zLjAxOTUgLTIwLjk5MjI3LC03LjMxNTc2IC0yOC40MDg2NCwtMTYuNTMyMjQgQyAxMjcuMDIwNSwxMDcuMDkyODMgMTE5Ljg5NjEzLDkxLjQyODc1MiAxMTEuNjU2MjUsNzYuNTk5NjA5IDEwMy4zMjUyNyw2MS42MDY1MTYgOTMuOTU5MzUxLDQ2LjQ5OTg0MSA3Ny41NTI3MzQsMzkuMjY5NTMxIDY1LjMzNTEzMSwzMy44NDk2MzIgNTQuMzg3OTc1LDMzLjYyNDUwMyA0Mi4xNzk2ODcsMzMuOTc4NTE2IFogTSAyMzkuODM2MSwxNDcuMjkzNSBhIDI3LjU3ODE5NywyNy41NzgxOTcgMCAwIDEgLTI3LjU3ODIsMjcuNTc4MiAyNy41NzgxOTcsMjcuNTc4MTk3IDAgMCAxIC0yNy41NzgxOSwtMjcuNTc4MiAyNy41NzgxOTcsMjcuNTc4MTk3IDAgMCAxIDI3LjU3ODE5LC0yNy41NzgxOSAyNy41NzgxOTcsMjcuNTc4MTk3IDAgMCAxIDI3LjU3ODIsMjcuNTc4MTkgeiBNIDE4LjA0NjY0MSwyNDguMzU3ODggQSAyMS44NTgwNjEsMjEuODU4MDYxIDAgMCAxIC0zLjgxMTQxOTUsMjcwLjIxNTk0IDIxLjg1ODA2MSwyMS44NTgwNjEgMCAwIDEgLTI1LjY2OTQ4LDI0OC4zNTc4OCAyMS44NTgwNjEsMjEuODU4MDYxIDAgMCAxIC0zLjgxMTQxOTUsMjI2LjQ5OTgyIDIxLjg1ODA2MSwyMS44NTgwNjEgMCAwIDEgMTguMDQ2NjQxLDI0OC4zNTc4OCBaIE0gMTcuNzc4MjYzLDQ2Ljc2ODQ1MiBBIDIxLjg1ODA2MSwyMS44NTgwNjEgMCAwIDEgLTQuMDc5Nzk3Nyw2OC42MjY1MTMgMjEuODU4MDYxLDIxLjg1ODA2MSAwIDAgMSAtMjUuOTM3ODU5LDQ2Ljc2ODQ1MiAyMS44NTgwNjEsMjEuODU4MDYxIDAgMCAxIC00LjA3OTc5NzcsMjQuOTEwMzkxIDIxLjg1ODA2MSwyMS44NTgwNjEgMCAwIDEgMTcuNzc4MjYzLDQ2Ljc2ODQ1MiBaIE0gMTcuNzE0MTc2LDE0Ny42NTM3OSBBIDIxLjg1ODA2MSwyMS44NTgwNjEgMCAwIDEgLTQuMTQzODg0NywxNjkuNTExODUgMjEuODU4MDYxLDIxLjg1ODA2MSAwIDAgMSAtMjYuMDAxOTQ1LDE0Ny42NTM3OSAyMS44NTgwNjEsMjEuODU4MDYxIDAgMCAxIC00LjE0Mzg4NDcsMTI1Ljc5NTczIDIxLjg1ODA2MSwyMS44NTgwNjEgMCAwIDEgMTcuNzE0MTc2LDE0Ny42NTM3OSBaIiBzdHlsZT0iY29sb3I6IzAwMDAwMDtvcGFjaXR5OjE7ZmlsbDojMzM1YmJiO2ZpbGwtb3BhY2l0eToxOy1pbmtzY2FwZS1zdHJva2U6bm9uZSIgaWQ9InBhdGgzMjg5NyIvPiYjeGE7ICAgIDxwYXRoIGQ9Im0gMTEyLjk3NzA4LDE2NS4zNDI3IGMgLTUuMDc0Niw3LjY0NjM0IC05LjMyODY3LDE0LjY3MzE5IC0xMi41MTQxOSwyMC45MTkwMiBsIC0wLjEyNSwwLjI0NjA5IC0wLjExNTIzLDAuMjUxOTYgYyAtOS4yMTU2NzYsMjAuMTM4MDEgLTE5LjUyMjQ5MSwzNi41ODk1NiAtMjkuODI4MTI5LDQzLjMwMDc4IC0xMy4xNjMxNTYsNi44NjM1MyAtMTkuODk5MzY4LDUuNTEzMDEgLTMwLjM2NDgxNSw0Ljk2MTA2IDMuMTk2MDQ0LDExLjgwNjMzIDIuNDQ0NTA2LDE5LjExMDMxIDAuMTQyNDQ4LDI2LjA1MzIxIDkuNTc3ODUsMC41MzIzNiAyNC45Mjg4MzksMS4yNzQ0MiA0Mi45NTA4ODMsLTguMzA3MjQgbCAwLjQyNzczNCwtMC4yMjY1NiAwLjQxMDE1NiwtMC4yNTk3NyBDIDEwMi44MjIzLDI0MC4zNjc4IDExMy43ODE1MiwyMTkuNTM4OTEgMTIzLjYyNSwxOTguMDc2MTcgYyAyLjYwNjk3LC01LjExMTQ2IDYuNjc0NTEsLTExLjg1MTUgMTEuNzEsLTE5LjM5NDg0IC05LjA3NDY4LC0zLjA3Nzk1IC0xNi45NDA4MSwtOC42MDk4NiAtMjIuMzU3OTIsLTEzLjMzODYzIHogbSAtNzIuODE4NSwtNC42MTUzOSA0Ni41MTQ0NzMsMC4wMTgxIDguOTkxMTU4LC0xMy4yODE0MiAtOC40MTMyODIsLTEyLjcxODM2IC00Ny4wOTI0MDYsLTAuMDE4MyBjIDIuODEzNDc4LDcuMzYzOTggMi4yMjQ4MjIsMTkuNjM5MTEgNS43ZS01LDI2IHoiIHN0eWxlPSJjb2xvcjojMDAwMDAwO29wYWNpdHk6MTtmaWxsOiM3NjllZjU7ZmlsbC1vcGFjaXR5OjE7LWlua3NjYXBlLXN0cm9rZTpub25lIiBpZD0icGF0aDMyOTAxIi8+JiN4YTsgIDwvZz4mI3hhOzwvc3ZnPg==;" vertex="1" parent="1">
          <mxGeometry x="293" y="403.5" width="42" height="39" as="geometry" />
        </mxCell>
        <mxCell id="9SuX9ZwHMjtxl8Abcy5n-29" value="Streaming &amp;amp; Batch Layer" style="text;html=1;align=center;verticalAlign=middle;whiteSpace=wrap;rounded=0;" vertex="1" parent="1">
          <mxGeometry x="284" y="274" width="60" height="30" as="geometry" />
        </mxCell>
        <mxCell id="9SuX9ZwHMjtxl8Abcy5n-44" value="BigQuery" style="sketch=0;html=1;verticalAlign=top;labelPosition=center;verticalLabelPosition=bottom;align=center;spacingTop=-6;fontSize=11;fontStyle=1;fontColor=#333333;shape=image;aspect=fixed;imageAspect=0;image=data:image/svg+xml,PHN2ZyB4bWxucz0iaHR0cDovL3d3dy53My5vcmcvMjAwMC9zdmciIHhtbG5zOnY9Imh0dHBzOi8vdmVjdGEuaW8vbmFubyIgd2lkdGg9IjIwLjAwMTA0NTIyNzA1MDc4IiBoZWlnaHQ9IjIwLjAwMTA0NTIyNzA1MDc4IiBmaWxsLXJ1bGU9ImV2ZW5vZGQiIHZpZXdCb3g9IjAgMCAyMC4wMDEwNDUyMjcwNTA3OCAyMC4wMDEwNDUyMjcwNTA3OCI+JiN4YTsJPHN0eWxlIHR5cGU9InRleHQvY3NzIj4mI3hhOwkuc3Qwe2ZpbGw6I2FlY2JmYTt9JiN4YTsJLnN0MXtmaWxsOiM2NjlkZjY7fSYjeGE7CS5zdDJ7ZmlsbDojNDI4NWY0O30mI3hhOwk8L3N0eWxlPiYjeGE7CTxwYXRoIGNsYXNzPSJzdDAiIGQ9Ik00LjczIDguODN2Mi42M2E0LjkxIDQuOTEgMCAwIDAgMS43MSAxLjc0VjguODN6Ii8+JiN4YTsJPHBhdGggY2xhc3M9InN0MSIgZD0iTTcuODkgNi40MXY3LjUzQTcuNjIgNy42MiAwIDAgMCA5IDE0YTggOCAwIDAgMCAxIDBWNi40MXoiLz4mI3hhOwk8cGF0aCBjbGFzcz0ic3QwIiBkPSJNMTEuNjQgOS44NnYzLjI5YTUgNSAwIDAgMCAxLjctMS44MlY5Ljg2eiIvPiYjeGE7CTxwYXRoIGNsYXNzPSJzdDIiIGQ9Ik0xNS43NCAxNC4zMmwtMS40MiAxLjQyYS40Mi40MiAwIDAgMCAwIC42bDMuNTQgMy41NGEuNDIuNDIgMCAwIDAgLjU5IDBsMS40My0xLjQzYS40Mi40MiAwIDAgMCAwLS41OWwtMy41NC0zLjU0YS40Mi40MiAwIDAgMC0uNiAwIi8+JiN4YTsJPHBhdGggY2xhc3M9InN0MSIgZD0iTTkgMGE5IDkgMCAxIDAgMCAxOEE5IDkgMCAxIDAgOSAwbTAgMTUuNjlhNi42OCA2LjY4IDAgMCAxIC4wMDctMTMuMzYgNi42OCA2LjY4IDAgMCAxIDQuNzI3IDExLjQwM0E2LjY4IDYuNjggMCAwIDEgOSAxNS42OSIvPiYjeGE7PC9zdmc+;fillColor=#f5f5f5;strokeColor=#666666;" vertex="1" parent="1">
          <mxGeometry x="641.75" y="110.57999999999996" width="42" height="42" as="geometry" />
        </mxCell>
        <mxCell id="9SuX9ZwHMjtxl8Abcy5n-46" value="Desktop and Mobile" style="fillColor=#f8cecc;strokeColor=#b85450;shadow=1;strokeWidth=1;rounded=1;absoluteArcSize=1;arcSize=2;labelPosition=center;verticalLabelPosition=middle;align=center;verticalAlign=bottom;spacingLeft=0;fontSize=12;whiteSpace=wrap;spacingBottom=2;html=1;" vertex="1" parent="1">
          <mxGeometry x="79.25" y="192.53" width="70" height="100" as="geometry" />
        </mxCell>
        <mxCell id="9SuX9ZwHMjtxl8Abcy5n-47" value="" style="sketch=0;dashed=0;connectable=0;html=1;fillColor=#757575;strokeColor=none;shape=mxgraph.gcp2.desktop_and_mobile;part=1;" vertex="1" parent="9SuX9ZwHMjtxl8Abcy5n-46">
          <mxGeometry x="0.5" width="50" height="33" relative="1" as="geometry">
            <mxPoint x="-25" y="18.5" as="offset" />
          </mxGeometry>
        </mxCell>
        <mxCell id="9SuX9ZwHMjtxl8Abcy5n-48" value="Payment" style="fillColor=#f8cecc;strokeColor=#b85450;shadow=1;strokeWidth=1;rounded=1;absoluteArcSize=1;arcSize=2;labelPosition=center;verticalLabelPosition=middle;align=center;verticalAlign=bottom;spacingLeft=0;fontSize=12;whiteSpace=wrap;spacingBottom=2;html=1;" vertex="1" parent="1">
          <mxGeometry x="79.25" y="311" width="70" height="85" as="geometry" />
        </mxCell>
        <mxCell id="9SuX9ZwHMjtxl8Abcy5n-49" value="" style="sketch=0;dashed=0;connectable=0;html=1;fillColor=#757575;strokeColor=none;shape=mxgraph.gcp2.payment;part=1;" vertex="1" parent="9SuX9ZwHMjtxl8Abcy5n-48">
          <mxGeometry x="0.5" width="50" height="40" relative="1" as="geometry">
            <mxPoint x="-25" y="15" as="offset" />
          </mxGeometry>
        </mxCell>
        <mxCell id="9SuX9ZwHMjtxl8Abcy5n-50" value="PC" style="fillColor=#fff2cc;strokeColor=#d6b656;shadow=1;strokeWidth=1;rounded=1;absoluteArcSize=1;arcSize=2;labelPosition=center;verticalLabelPosition=middle;align=center;verticalAlign=bottom;spacingLeft=0;fontSize=12;whiteSpace=wrap;spacingBottom=2;html=1;" vertex="1" parent="1">
          <mxGeometry x="79.25" y="414" width="70" height="85" as="geometry" />
        </mxCell>
        <mxCell id="9SuX9ZwHMjtxl8Abcy5n-51" value="" style="sketch=0;dashed=0;connectable=0;html=1;fillColor=#757575;strokeColor=none;shape=mxgraph.gcp2.retail;part=1;" vertex="1" parent="9SuX9ZwHMjtxl8Abcy5n-50">
          <mxGeometry x="0.5" width="50" height="44.5" relative="1" as="geometry">
            <mxPoint x="-25" y="12.75" as="offset" />
          </mxGeometry>
        </mxCell>
        <mxCell id="9SuX9ZwHMjtxl8Abcy5n-52" value="Customer Support" style="fillColor=#fff2cc;strokeColor=#d6b656;shadow=1;strokeWidth=1;rounded=1;absoluteArcSize=1;arcSize=2;labelPosition=center;verticalLabelPosition=middle;align=center;verticalAlign=bottom;spacingLeft=0;fontSize=12;whiteSpace=wrap;spacingBottom=2;html=1;" vertex="1" parent="1">
          <mxGeometry x="79.25" y="516.53" width="70" height="85" as="geometry" />
        </mxCell>
        <mxCell id="9SuX9ZwHMjtxl8Abcy5n-53" value="" style="sketch=0;dashed=0;connectable=0;html=1;fillColor=#757575;strokeColor=none;shape=mxgraph.gcp2.users;part=1;" vertex="1" parent="9SuX9ZwHMjtxl8Abcy5n-52">
          <mxGeometry x="0.5" width="50" height="31.5" relative="1" as="geometry">
            <mxPoint x="-25" y="19.25" as="offset" />
          </mxGeometry>
        </mxCell>
        <mxCell id="9SuX9ZwHMjtxl8Abcy5n-55" value="Source Systems" style="text;html=1;align=center;verticalAlign=middle;whiteSpace=wrap;rounded=0;" vertex="1" parent="1">
          <mxGeometry x="87" y="138.00000000000003" width="60" height="30" as="geometry" />
        </mxCell>
        <mxCell id="9SuX9ZwHMjtxl8Abcy5n-58" style="edgeStyle=orthogonalEdgeStyle;rounded=0;orthogonalLoop=1;jettySize=auto;html=1;entryX=0.004;entryY=0.545;entryDx=0;entryDy=0;entryPerimeter=0;" edge="1" parent="1" source="9SuX9ZwHMjtxl8Abcy5n-54" target="9SuX9ZwHMjtxl8Abcy5n-5">
          <mxGeometry relative="1" as="geometry" />
        </mxCell>
        <mxCell id="9SuX9ZwHMjtxl8Abcy5n-66" value="" style="aspect=fixed;sketch=0;html=1;dashed=0;whitespace=wrap;verticalLabelPosition=bottom;verticalAlign=top;fillColor=#2875E2;strokeColor=#ffffff;points=[[0.005,0.63,0],[0.1,0.2,0],[0.9,0.2,0],[0.5,0,0],[0.995,0.63,0],[0.72,0.99,0],[0.5,1,0],[0.28,0.99,0]];shape=mxgraph.kubernetes.icon2;kubernetesLabel=1;prIcon=api" vertex="1" parent="1">
          <mxGeometry x="637.75" y="205.26999999999998" width="50" height="48" as="geometry" />
        </mxCell>
        <mxCell id="9SuX9ZwHMjtxl8Abcy5n-82" value="Streaming" style="text;html=1;align=center;verticalAlign=middle;whiteSpace=wrap;rounded=0;" vertex="1" parent="1">
          <mxGeometry x="559.25" y="47" width="60" height="30" as="geometry" />
        </mxCell>
        <mxCell id="9SuX9ZwHMjtxl8Abcy5n-86" value="" style="group" vertex="1" connectable="0" parent="1">
          <mxGeometry x="446" y="492.99999999999994" width="87" height="76.06000000000006" as="geometry" />
        </mxCell>
        <mxCell id="9SuX9ZwHMjtxl8Abcy5n-59" value="" style="rounded=1;whiteSpace=wrap;html=1;fillColor=#f5f5f5;strokeColor=#666666;fontColor=#333333;" vertex="1" parent="9SuX9ZwHMjtxl8Abcy5n-86">
          <mxGeometry width="87" height="76.06" as="geometry" />
        </mxCell>
        <mxCell id="9SuX9ZwHMjtxl8Abcy5n-45" value="Cloud&#xa;Storage" style="sketch=0;html=1;verticalAlign=top;labelPosition=center;verticalLabelPosition=bottom;align=center;spacingTop=-6;fontSize=11;fontStyle=1;fontColor=#999999;shape=image;aspect=fixed;imageAspect=0;image=data:image/svg+xml,PHN2ZyB4bWxucz0iaHR0cDovL3d3dy53My5vcmcvMjAwMC9zdmciIHhtbG5zOnY9Imh0dHBzOi8vdmVjdGEuaW8vbmFubyIgd2lkdGg9IjIwIiBoZWlnaHQ9IjE2IiB2aWV3Qm94PSIwIDAgMjAgMTYiPiYjeGE7CTxzdHlsZSB0eXBlPSJ0ZXh0L2NzcyI+JiN4YTsJLnN0MHtmaWxsOiM0Mjg1ZjQ7fSYjeGE7CS5zdDF7ZmlsbDojNjY5ZGY2O30mI3hhOwkuc3Qye2ZpbGw6I2FlY2JmYTt9JiN4YTsJLnN0M3tmaWxsOiNmZmY7fSYjeGE7CTwvc3R5bGU+JiN4YTsJPHBhdGggY2xhc3M9InN0MiIgZD0iTTAgMGgyMHY3SDB6Ii8+JiN4YTsJPHBhdGggY2xhc3M9InN0MSIgZD0iTTE4IDBoMnY3aC0yeiIvPiYjeGE7CTxwYXRoIGNsYXNzPSJzdDAiIGQ9Ik0xOCA3bDItN2gtMnoiLz4mI3hhOwk8cGF0aCBjbGFzcz0ic3QxIiBkPSJNMCAwaDJ2N0gweiIvPiYjeGE7CTxnIGNsYXNzPSJzdDMiPiYjeGE7CQk8cGF0aCBkPSJNNCAzaDZ2MUg0eiIvPiYjeGE7CQk8cmVjdCB4PSIxMyIgeT0iMiIgd2lkdGg9IjMiIGhlaWdodD0iMyIgcng9IjEuNSIvPiYjeGE7CTwvZz4mI3hhOwk8cGF0aCBjbGFzcz0ic3QyIiBkPSJNMCA5aDIwdjdIMHoiLz4mI3hhOwk8cGF0aCBjbGFzcz0ic3QxIiBkPSJNMTggOWgydjdoLTJ6Ii8+JiN4YTsJPHBhdGggY2xhc3M9InN0MCIgZD0iTTE4IDE2bDItN2gtMnoiLz4mI3hhOwk8cGF0aCBjbGFzcz0ic3QxIiBkPSJNMCA5aDJ2N0gweiIvPiYjeGE7CTxnIGNsYXNzPSJzdDMiPiYjeGE7CQk8cGF0aCBkPSJNNCAxMmg2djFINHoiLz4mI3hhOwkJPHJlY3QgeD0iMTMiIHk9IjExIiB3aWR0aD0iMyIgaGVpZ2h0PSIzIiByeD0iMS41Ii8+JiN4YTsJPC9nPiYjeGE7PC9zdmc+;" vertex="1" parent="9SuX9ZwHMjtxl8Abcy5n-86">
          <mxGeometry x="22.5" y="12.06000000000006" width="42" height="34" as="geometry" />
        </mxCell>
        <mxCell id="9SuX9ZwHMjtxl8Abcy5n-109" style="edgeStyle=orthogonalEdgeStyle;rounded=0;orthogonalLoop=1;jettySize=auto;html=1;entryX=0;entryY=0.5;entryDx=0;entryDy=0;" edge="1" parent="1" source="9SuX9ZwHMjtxl8Abcy5n-88" target="9SuX9ZwHMjtxl8Abcy5n-101">
          <mxGeometry relative="1" as="geometry">
            <Array as="points">
              <mxPoint x="969" y="390" />
              <mxPoint x="969" y="309" />
            </Array>
          </mxGeometry>
        </mxCell>
        <mxCell id="9SuX9ZwHMjtxl8Abcy5n-88" value="" style="rounded=1;whiteSpace=wrap;html=1;fillColor=#e1d5e7;strokeColor=#9673a6;" vertex="1" parent="1">
          <mxGeometry x="570.25" y="329" width="310" height="151" as="geometry" />
        </mxCell>
        <mxCell id="9SuX9ZwHMjtxl8Abcy5n-84" value="" style="group" vertex="1" connectable="0" parent="1">
          <mxGeometry x="682.25" y="338" width="87" height="76.05999999999995" as="geometry" />
        </mxCell>
        <mxCell id="9SuX9ZwHMjtxl8Abcy5n-75" value="" style="rounded=1;whiteSpace=wrap;html=1;fillColor=#f5f5f5;strokeColor=#666666;fontColor=#333333;" vertex="1" parent="9SuX9ZwHMjtxl8Abcy5n-84">
          <mxGeometry width="87" height="76.06" as="geometry" />
        </mxCell>
        <mxCell id="9SuX9ZwHMjtxl8Abcy5n-71" value="Dataform" style="shape=image;imageAspect=0;aspect=fixed;verticalLabelPosition=bottom;verticalAlign=top;image=data:image/png,iVBORw0KGgoAAAANSUhEUgAAARsAAAEbCAYAAADqLSAhAAAAAXNSR0IArs4c6QAAIABJREFUeF7tfQmcHVWZ73eWqrpLd4JAooj7jOMbGB0hAcImCTgQQElYuhVBJSFJE0GeMiKoM4/LIMYFUMCRdJMQAQnYl7DIEPckDAYEOohvAOG5jY5AIJD0dpeqOsvj1O3q7sROcrv7Vt26t7/7kx/Y99Q5p/7fOf/7ne98CwH8IAKIACIQAwIkhjFwCEQAEUAEAMkGFwEigAjEggCSTSww4yCIACKAZINrABFABGJBAMkmFphxEEQAEUCywTWACCACsSCAZBMLzDgIIoAIINngGkAEEIFYEECyiQVmHAQRQASQbHANIAKIQCwIINnEAjMOggggAkg2uAYQAUQgFgSQbGKBGQdBBBABJBtcA4gAIhALAkg2scCMgyACiACSDa4BRAARiAUBJJtYYMZBEAFEAMkG1wAigAjEggCSTSww4yCIACKAZINrABFABGJBAMkmFphxEEQAEUCywTWACCACsSCAZBMLzDgIIoAIxEY2WmtyJQCBK5MN+kFXAJmxKaw6sQm2zZ2rIZ+HtrY2FYBFiE72G+DsEIFkIhAb2STz9cc3K0OYhm7yhjTzAG1toAiSz/hAxNZTFoHIyUZrTQkh6ifP+ycIj56jNO2jACyJiCtQhBK6lTEollzlCU9s14S+IqV60ev3Xivt17KjYzbxR8/dEFAegJq/tQGSTxLlinNKBgKRk83GjZrPm0fET5/Xl0/fD1Zs2wpgWcl4+bFmQSkAZQDCB/BcAKW1yxj02hb0Fgtyq1L6d9SC/9KCPOf1u7/Of2f9tny+XYZ9dWvNngXQOQIaAI9cyZU0zixuBGIjm/XP6s9wBt/s7/XKlBAe94tWO542HAHEnJcIUEJAa8YoA8ppQEKGjBgHKA8qAZT8BUD91vPkBq3V5hTbseXDs99cDMcyRDt3bqDtqGrHx3aIQLMiEBvZ/PAZfYmTgmt3vOb7hECCdZtRotZGOTHaiaEgoknwL9DBnykwy7IIYwDmH7eshJDqGQC9iVrWnX9+4XdPXXzKu13T20at+UMAKoek06z7CN+rCgRiJRs7Bdf2NhLZ7A5Ag5oOmEeZf1NClSaap1JWoP14nlaUwiNaynsLBXn/R49O/d50lctpetBBQNrbyfCxqwoZYRNEoCkQQLKpnRjN+UsFpzAAmspaxBy5PFdulQLuAaJuOX2WvcV82d2t2bPPgs7l8HhVO/ixp6QjgGQTkYSU1ooSohjnPJUmUBwUPqP0Ls+XN5x1hN0THK8qNh2J1+cRCQG7TRQCSDbRi8MYh42RmKezHHxPlTXRtxYHxDfC45XRdPBoFb0gcIT6IoBkExP+xqpMCBGEAM+0WOCW1KtKihu9Afu69nlkMLdRc3gIFB6tYhIIDhM7Akg2sUMe3GZJygjPtnAoFXWPFvILCw+zfhbac1DLiV8oOGL0CCDZRI/x7kYISCeVsbgUAEqJr/Vve+2qT5z0poK5Kp9HiKjf1HBkRKD2CCDZ1B7T8fWoQRr3wew0i7gFucVXbNmZs8mTxo6DsVfjgxJbJxsBJJuEyEcD+OmMZUlf9QspLjx9lvM9AE26u4HisSohQsJpTAoBJJtJwVfbh7UGwRjltsOgVPK/9V8PWv9sDMYm3qqdoCNgbdHG3uJGAMkmbsT3Pp4ygVmtrRYtDMj7Bl5j537iJFIIA1r3/ji2QASSiQCSTTLlorXWsnW6zT1Xb+r9y44F556yXz8STjKFhbOqDgEkm+pwqksrY8fJZi1L+PLxvkG//Zyj039CwqmLKHDQGiCAZFMDEKPsQmvwW6ZZlu+p5wb6yyecfUz2RSScKBHHvqNCAMkmKmRr2K9WWrRMs7nv60d6/7LjZHOkQqNxDQHGrmJBAMkmFpgnP0ig4bQaDUdu/H/Ps1MvaSelMOXq5HvHHhCB6BGIlWwaLnlW9PiPbwStRXaazUtFvW7BIaQtfBijxscHI7auDwLxkc3T+rPchuv6ez0XCFgEiEk/Ffn444HVzMnko1GgCSHBDAmhJjVfWNplPL1F1FaDaNnH4oN94itnHGZ9Ce03EeGM3dYcgcg3e7gZfvScvmyfN8BXk5zwPMg+HGThA5AKwMQsCc83kZOS0KGkoCSopBA5bnuQtAkf17bNqRCybeGh/G6Mpar5vsAOI0Ag8k0T2hUefMafL1xYrBXp1WSklAslRCutSfjvPb1jNW0mjJHRZFSQzrOVMpipNJkuhX4TY3qmk+ZcDZGP7wmllVZQeYfI8RvrfYzyxTkz6dh7RUEce8bRztOYE2fCkscHY0Igns1iirs1WDG3G9Zr58AZ7oFU63dyy3qX58vj0lnrfb6nDs5kGS0VjdbjVVKBEhK7tqO1FpkWm3tl+ciftrLjLz6FuKaGFdpvYto5OMy4EYiHbIL84JVibm0AOp+vj0ZQLTptbYHR5q/Kr6z6Ud+++74h8347BSf7grRbNnubqaxQKgbajiajNLZqx5pMO+P0Z26oyiVx5YJDrJxJwJWbh6kpJoMpPhsdArGRTXSvEFXPmuRyV5KDDrqCzJgBZNs20KOjr7uf1i2s6J/FGF3MGDmGWZSUCr5JF2HMPkGFzBg+gSpDCEip/OPOPCyzGf1vYkAdh5gQAkg244At0M7yQEdrPt3d2nb+1p1PCLuc2/xI6QP4vm8SX8VViE+kMxYvl+UvfIed0P4PxMPj1DiEik1jQwDJZsJQa9Ktg2OhSWauDenYf+MvIoz9SypF31IY8GVQ4i4eLUdkWixeKvifOX22fT1eh09YqPhghAgg2UwWXK1Jd8UWFZDOnQ+99tZMy/QVVoqd45WlOd/IGGw5ijFGgcCLRNIjT5tN/mwK4mHy9MkKF5+vJQJINjVEc7RGse4Jr4Nzeg1jrMUr+wJIxMcq4+w33eJuSX39w+9nl2mtGcGEWzWULnY1WQSQbCaL4C7PG7+iPAAxmfXW/dKbk2rhtzFK3l0cjJpwtGaME02g1xP+nPbDUs/ntKZYX7zGAsbuJowAks2Eodvzgz092po9m/jdjxQPTGdS93KbHFYs+D4BsCIaMvB0bplus3JBrV5wKFuCN1NRIY39TgQBJJuJoFblM5092uqYTfy1G/v3b31D5kHusMOL/Z4JfTDex1F8NKXU3IUXXCGPaT/cfgo9i6OAGfucCAJINhNBbRzPhHacgHD2a/kR52RWyRypKHATg1XzjwaRnWbxcsm/dcEh9nlINjVHGDucIAJINhMEbjyPhYSz7kn99hRXm5Sm7/DdwAEwCg0noDDOqdSg5y44xNqMhDMeaWHbqBBAsokK2V36DY9U+Uf9ubZDf6iUSmnQCnTtvY210jI7zWZuSeQXHGq1Y5KtmISMw+wRASSbGBdIaDS+53Hv4kyrdX1x0JcAtdduiAlFAyCMUS21/uAZs6wNqN3EKGgcakwEkGxiXhjhdfT9W8T3nQxrD67EowltEJmssd3Iny2cxU80hcUxIjxmYeNwOyGAZBPzggg1jHWbS2/nWecx0PqNUphUXbU+ThndhirOOdXC/dCC2akH8So8ZmHjcEg29V4DYWa9HzzpfdpOWTcUBoUgRNc8cFNrkOmsxTxXbHr5iV+f+NJLsySGMNRb+lN3fNRs6iJ7bRIwwy0/eLVl5tvfsJFyNqtc9COJodJaq1TGpqIkz15wGL8LgzTrInActF5pLRF5gHDT3/OE+1HLtu/0Pd8k36p5cnXjVZzO2Ez68pEXH2dzOzqIjykocAXWAwHUbOqB+tCYYWT2fVv8h5wU/8BQ8q0ofG9kKm0x15MfO/1QfifeTNVR6FN4aCSbOgo/3PQ/+JVYwDi7r1z2VRT5b0yC9FTKor6rnnn5pZcP7/jwm4vQgHmh6ygqHLoGCCDZ1ADESXQxVDgGyA9+LdZbnM0vFjxJSASxUxpkpsVihYJ/wZmH2Z2hk+Ek5o6PIgLjQgDJZlxw1b5xeB19z5bS8bbl/MhzBY/CdgMapJ2ymJTqmcHBgWPPOXafHWi7qb08scfdI4Bkk4DVER6n7v+VuD+VYqcNRhUZHgZpFsTnF8yyvoE3UwkQ/hSaApJNAoTd3d3N2tvbZf6J0lyL8p9pDVQpk2W0tuIxthvLsigh6g87BotHfuLo1ldQu0nAApgiU6jtap4ioEXxmmGw5L1bvNszWevcwkB0YQzZVouXBsXlC2dbX0Ov4iikiX2OhQCSTULWRXiUuutx77C0xR9WUjraBDTVvsSv4pZFtVJbi8I9/OzDM/+DydETsgiafBpINgkS8Cjbza2pFPtEZLYbqCTYKvSLb5xxmPV5tN0kaBE08VSQbBIk3DAivPuJ8nsczh5TCqabsr611260ZtwyQeAvFwv+0R89OvV7TI6eoIXQpFNBskmYYEMbyv1PihtTWXbRYH9ESdK1FtlpNi8X5U0LDuWfQq/ihC2EJpwOkk3ChBoairt/6R6UTvP/VBL2k1IMFdes6WQ1oYQwSvrLrjyyfY7zLGo3NcUXO9sFgfjI5nX3+NyVEN94exB10tMsDAdpPu6vyLTyy4sDEeUrHvK7KRXlyoWH8uV4M4X8ECUCidj8Ub5gI/Yd+r6YmlNOytkChL5RCi8a7cZ481DqCl8ec9YRdg8epxpxxTTGnGMgG00AiF50w8AMnSIHEq496vqUMiuoAqCkqdu2949pv7u2u/tu9N+D/6ZAiEkoVdr6hxsvfre791Hr12LYdtPj/1u6lf/rYF9kFTVFS6vFCwX/+6fPsj+KydHrJ/NmH7mqjT4ZEHIbNc/NI+JTt5U/S7lznV/2+0xVyAiuWPY2TaWJtgnR24iEE246P/V8kv1Lwrmt7dH77+PoXwhJ3uP7kUSFa+OpTCgR0lMfOHOO/UvUbva2lPD7iSAQG9lcfJe+hHK4ttjnCkJJzVNg7u3lNWjNKDeHhm2lYu/cNRfs92ySyca8T2i7ubfH/+dMll8TeBUTqDl2Jn1otsVivifv/fD7+Rmo3extNeH3E0EgNrK5cK28hHN6bbG/4BNCeRTFIPcEADGGEMYpYexl4fbOW7V0/98knWxC242pptmyT/YRQum7PdczQVN0IsLe4zMElGUzkL46ZeEs68doLB4LrcAkYL6Ie/nWXNz16DBesrHotaW+kg8ErLhfNtBsmEWA0leE2zu3EchmtHaz7gmvI5O1VgbZ/CKoNQUAIp21uPD1Ax/+R3paRT4Ve1vcskrkeGGyseDfZoaIy3jlhGSTI6aMSmI/oXazZqNO7dMqHrcd/t5oMvoFVjTNLYsoLU9deAhfj7abyrIINeC5uT+mZhz0Dj/fTiRmOhz/lkGySTjZGJGGR5oHnhKLLIfdUhiILpufKf3iluWjTz3w5WOuuOIKYzye0ppNW1s3y+fb5axObU1/rfwfoNXzG76UvTjQ+gJ+ntr4jIdykGwagGzCX9Eb1mvn7W/Wmzgjc8qlaAjH5LxxHIsKX3504Sz+/akcpNnWrZnRYg664mn7gNTf3s0c58NaAki3cM2Gf2m5NJCLcVRthDU0HlaIqC2STYMslOGbqSfFmbbF7nZL0XgVB4XtMhYTvtz8/H+9etKlH39jMVh7U+wXvK1Ns3yeyFnLtLXPO917uON8yCsNmssNyuwMk17hmg1fHCKcKYjPRPgIyaZByMao7bkckAM+BGwmFZschx9ljMWEQBSlX0SmxeLlsr904SH2qql2M7WLRrPOEI1fHBRAApcNUzRdcTvDhFu4dsOXWj5XsaUbwzEeqfZEQkg2DUM2I7ab+7aIDzPOfuD7QoHWNb8GD49SUqhfu2V6ZPtRpDRV0oeOaDQ91j7v/Id7mO18SJSGiSbcSwHhBBpOGY9U1Wo5SDYNRDbBzcjr5JIjRN3XIx50MuyU0qAnIaLSL+kWi5VK/rIzZtk3h57g1S6sRmy3F41m11dCwhmnkJFsGoxswiPNvT3lExm3f+z7AigBk0C0prI02o1tW1QI9Yf+HYXDP/nBaa81s3YTajQHtT1tH3Do31aOTqWCANijx/bIkcorXbPhi5lL8ZZq9wxU0wU61jDhL2LgQYxOfeP8LRi7ebjp73/Sv99J89MKUZV+MelDK8nRL10427qmWW+mdtVogqNTueADVOV8OkI44ZHKXIvn8JZq19WLZNNgmk3FFqkpMUepX3tHMMI2+Z6ytVLmbzUhsxHDhAlhMMnR5R9cv3x0++EtW5Me4jFeAHa10exiDK62OzxSVYFUbVfnGAOiZlOFFCbQJPTuve9X3h3ptPWxQn80QZoA4GdbLatYFF8+/VDrX5tJuxnWaEYfnUZuncYrlb8+UpkbKrwWH8YRyaYBNRsjveHSL5sLh6XTqY1a66xSMooEW4qZAFaqXyx47pxmKf0SegaHNprd3DpNnHBGH6nQ07jCueNFc7ztUbMZL2LVtw+xvWeLWJnNso6g9Es0N1NB6ZdyUV214FD2fxrd72ZEo+m2Dzj0tNAYXK2NZm8CwiPVbhBCsmlQzcbIM7Sf3POo+/fUZj0AkFFKRZGXTFPGjUVoh6/8o86a7TzXqDlvanx02h3x4JFqDGSQbBqYbEYbix/4tf8t2+H/O0LbjWiZZvGBPv87Zx5uX9iItpudbp2cv13HUkMOexBJMrdRhDMU2lAR2JT1NEayaRKyue2h0jv3fYOzWQp9gJTGdlPrI7LWlDJCGOl1y8Wj2+e0Nlbpl9zrntY5oubmNnLmHHUvs+2xPIP3dkQa7/d4pBqFGJJNg5ONkWWoZdz3pP/VdIZfNtjvCVKJ46n1R2SyFi+78rsLD+GLGibfzZA2ccIX+veD6c6tzLJPFeW9OuzVCjvjbqmYnZ3ywZtINk1ANqHt5s7H9VvTXD5GCT3AF0IRgFrHTQUak+2wYnHQndd+VObxRiCc8Obp+C/3H0W4swk0WFp5EoBEEcQ6FkmNcaSaevlwkGyagGwCY/FQFYv7tvhfTGX41ZEWtms1EeHytgWH8E82ShXN0Hnv+BWDJ1Ji3wOgs0rGTzg7BW9OMU9jJJtmIZtcjuZyOfVAj95fgr+FWdbbfM83KU9rr90ElV+o8IV/fNsR6Ycb5WYqNBAff3XfyYSl8gCQ1bESjolgo5Vo8SmYDwfJpknIJnD005q1EyLv3eJ/PpPlXwtKv+w5kHBCdomg9EurxcoFuX7hbH5qo5CNeVmTDGtLF/HnXT14EmX23QR0i5KRJZHfy5EqDN4M/Bgo5HKJzoc9ocWCBuLGqa4wHgGHAZqdP90+/c0zW39BCP8HtxxJ6ZegsB1jVJVd/+T2OamfNlIKCpNPeEsH8U9YMTifEPtuo+Eo6cZuw9lJw5kCOY1Rs2kizWb0zdQ9Pd4F6Yx1U6kQjXYTln7xXbn+yUPYh6/QoCtxoI2RrS7UcI67uu9ki6XzGnTMRyqT8W+MW6omzmmMZNNkZBNqN9/7pZ42PaV+QRh9b6DdQO0L2xECwk5Z3CvL00+fze9rtDCGYQ3nqr75YKXzALolXhtOJcVooOGEKUabOHgTyabJyGa07eaeLeIcx2Hfc0tCAuiaX/NqrVUqY1Ml9COl/0c+0N6A9ZRCDeeEq/rmEys9dKQyt1SR5Hau8lq8OT2NkWyakGxC7cbYUQ6ZLh+2bDanXIymGgNokJlWi5WK6tOnz2LfbsQwhl1tOPU5UjV/TuMpQzYAoCjlNCi/6zWngXj0z+aw383j4iNOlt1VLPpROPmZIRXjJsGWes0rFY5uP2ba843g6LerijFawxk5UsV9S9XcnsZTi2zYENk0UK3v8dxG7dw2qNMNudxGNuv0Y3/MODs+stIvGkSm1eJuWf5wwSH8FKNZBabiBittMtqGM3Kkiv+WKigTE/rhNNEtVYxkoz9DKXyzPFgsU0K5Dozxk/tUG204VD9WE0IZYfxlVS4e39Ux7blmS3G5K5qhwfb+Lf58ZtH1nqtUFLabYNwhwvE89aXT/pF9pRGPU6P9cMJbqoqncdwaTuVIpdzSN37+pczngyTqTZDTeLL7fa9sEarzF62Vl6en0RWD2zUwHvmwfzUvrQEoAxCeKIpy+fCbl7U+E7qw7/UlGriBcbhrzwP5+N/p/7BsMr80GFn60ID7LdsC35VnnnE4v6ezR1sds4lJStVQn9E2HCBWYDSO95aqOT2NI9/1ofbQsWrwBCDkIxpILzGW/tCJfiI+k6Md8Hd9fqzvqEkjYv4HnGhdoJ66fuXy1lemQm6RULtZ11Oax6n1E6U016bwS81TUBjlBhTnnILWhbLrnvSRIzObe3q0NbsRCWcnT2NrHQkc/+LXcCpHqubwNI6cbBrqJ61JJzscxvCEf3e6hZ9ZGIgofWjlOCUtx2JSqhc9IU9tP9x+qtE1HBNLRZnxw0FP48lskfjIRmvSlq95UOCE3j1v/EGm0CeMzP7BFj1HU7VZCkmDqnY1Lv0SQqq1lk7KZkqqFzxPLjzrCLtno9Z8HgETEjBkQmsMAQzfUq3om09I6m4d+5FqlKdxg5f6jY9sGmNtNe0sQ9+b+54Ut6XS7ONFY7uJIEhzNOHYKZtJXw4IKc456/DUA4b0zPemfHAjAT1ySzU4Hyw7TwBa4o2lqthwgiNV6GncgLdUSDaNtOonMdfhOlM97nuZzR4Rnm6JynYzPE0NklkW00pJpdXnz5htXWe+a8Sbqp08jXlqHRCSqeTDqaencWPdUiHZTGIDN9qj4Sa/5wnv29lW68IIk6OPhkYSICyV5eC58o5Cb/EzH5s37VVDfqZREOLQIJ9Qw6nYcFL5+hyphjyNQz8ck5oCrjDqYuK1RSSbBlnotZhmeDN476OldxDbfoQyeoDvR+ZZPDJlAgpMDIDJgVNUv1egLzv9UL7ONGg00gk1nA9ePXiSZiY9hQnerPMtVYMEbyLZ1GIXN1Afw9pNj3dxJmtdH1n60LExEZZtBQWofCHuV1p/9cxZ9i+DSyytaT4PpK0NVNI9j0fbcIhVv3w4jeZpjGTTQERRk6kOVRro7u5m9t+csdFOsWPLxWiNxaPnrUEr4+KTyVrUc5WnpF7nS+/G9iMyj4btjLbz7AwgV8wFczQwiboSd4M1nA/nyr6TLSfMhxO/hrNTTmMj2wTnw0GyqckObqxOQmPxvU94h1NOH5ZS20a1iMLRbyxkCAGtFChKgGVaLSgVlQ9a/dzmfPUL/114eOmClpdHP2f8hMB4uUAenm1r03BlMvB+bF+wfngxcedd1XcKM/lwjNFYlA2Z1jrv8+5eeCQfTuj4l+AjFZJNMtZt7LOo+L0Qcc8T/pcyLfzLRZOvmEAUtab29G6G4Ex9cp7K8EDn0Vo/L4T6pVv0fw6EPvWngR1/uPSkNxViB2icAx77bwPHcdu5m2q1v1a+NmGo4+xios1HysSUS9ds+JfMpUFHCay8GRcgEwUSn4sIgdGR2T/4lVjvpNnJhX5PQDTF7Xb7FsH5yETlApgUGOCkLGbZwd9A+Gq7EOqPmtLfej48Vy57f3R9eOGlAf8vf3xB+ZxNOpa3JugKSfkb9yfbn/0ztA36/FtaSQtI8FZx7a+GqLwZFxg1ESp2UlsEwuNU92OldzqW/TBl9EDfjSjJ1qipBwe2IAUFADX/VGLXQCoAX2pV9kAVykB8xZiiDIQGKJQBSq4xLMvgH1cGP91DvYYnwD2ZdsZqu6flP/pUOdYJc9fvKaFUlwYL0nmhV1OtdPBuMRqbEl95E8mmtvu34XoLo/Lv7fFP5BZ9UPiSaxVNLIMhlIBgaCUK1CS8KPkAAyUN/SUNOwoa+ssaPAFgKl75Zh4qSKSuGQXCCDXWkCDKIqpQi8kJkBAKCgplBS9sr0T+xk84pOJpnMB8OEg2k1tdTfF0eB1+b4/36XTGuqFUFEIpxWuxoUOzMwsIoqK9DJY17BjU8HK/hr6ShqIHIE1IPh3SdIK0XztbPYaOW0OaQoz6wngkrIOrM2DUaGK6roSTxMqbSDbjWUxN3DaMDL+nx/1GttX+XOBdrDWfqJ0z1GLMxjPUUHQ1bOvXsHWHhu0lHWg0hoDM9+YfsxBNu/CI1chQm/dIDOEkqPImkk0jr+oazn04SXouR9/3oS/elm2xzplIRc2QZIyWYrQYczR6YYeCl/o0FNyK5hJoMOHlsNEGavgeSekqGYQDitvZnfPh1PGWCskmKaszAfMIwxk6O3usmbPed2umxTq7MCB8Apobc8uephiaS80vuiGZbf0K/uc1DVv7dWB/sYc0GENGzUguY2GTDMLZJZaqjtHiSDYJ2ORJmkJYt9sYjt/X4t+WbTWE4/taa2ssG05oS2GscgR6rV/D715RAcmYj8Mqthc1VRhmF2Emg3CSUXkTySZJOz0hcxkhnI38fS1H3dY6zT57sF8IXSl0N7xmwtsWcyTqK2r43VYFf+mt3MLYQy2bwQYzWbEkg3CGbqnqWHkTyWayK6lJnw+z+5mbqh3T5LczGdZRKvjmVtz4twQWF3NkcgXAf78i4XevaDDZXYwmY+gISWbnhZEowhm+Fn99jrnXE5rFlJ4CyaZJyaIWrxUSjunr/l/5lxJCv248SYTwlbHxvtqv4ZkXFLxa0JDiFePvVD0uVYP3WIQTW1BDZYJ/7Wkc/NX8fkQf7IpkU80qmcJtjCJz5eu6iknlefcT4kzHotf7Qh3425eEfn6rCvaKxZBkql0iw4RT0sENnXFsjPkz7GksyqWvHyfSX8gFmk1Q1DBSyxqSTcySbsThDOHknwGr/R+Id8P6wuJXSs7qP7/qqRQPlJkpc7tUK9kFNYUYgNEMX+nXwXE05o8CQqTdkrG8/sH2Df/Smm/r1izqQgBINjFLueGGe13Fzr2eI8X8+l30XffMsoLrldIHWtRYb2ILNGw42HY34QRoNmZqgqeyXLiltcod7Nh05czBOI5SSDZNs4xr/yKjyxMvX1O+FCj7OiEMpCibqKX4f49r/4qx9lh3m00Qia4VT7Uw4ZfXbrg8fW6gmMZkJEayiXW5Nc5gIdHMzW3kf/fWI75lp9MXeuVlG6ANAAAc90lEQVSyMTIYIyMSzThFmYDbqIpGk85yUS6v3fCF1LnGKBxnCWokm3EumqnQPLyFCojmbXNudTKpj3mFslCgg3jKqYBBLd+x7kRTya0jDdEoz1v7s8vtc40xeLTmWsv33V1fuHDiQLmBxgiJJpfT/KW3lm6zMumzvWLZB1AW8sz4BVl3oqlMechGU167wfvaxyGXU3FqNCFqSDbjXz9N+0T4S7dsWY9F5hx8q5VOVYiGaB5j1rmmwbfuRGN8Z7QONBrheWs3XOacazII1oNojFCRbJpmaU/yRYYcu3K5HH3prZfdZmdS57iFUj3yEk/yRZLxeN2JJoBBC55uqRydyisCjSbuo9NoaSDZJGNt1n0WoZ9Fxy3Fb9iZ9OfcwZIAmHg+m7q/UB0nUHeiCW005no7uHVKBTaaemk0eIyq42JM2tBhatCONeVPc8e5QZTKQoPiyVR8I3VynZxokpGpr2KjGb51SleOTjE47e0NPNRs9oZQk39vDMG5HBHLVpdPZBZ7UPo+Nwd9EyxT71cP9q4OIj+H5hPchSVharuBps45iHe9dRqy0dTz6ITHqHrvooSM39bdzfLt7fLjndvflnGymynhb5HClSagu25TNCnOAVRAKYwxxm0wuXKUhKCulNIStBSGdEbl8wpTd+1J62n66gomoFLwTEvFjya8dUqARoPHqLrtpqQMbALvgjsCvfy7/n8wh5/qFYqx140aQsOwhPFKBm7bjHEWpKgQnrdda/1HRulvpdbPKeH/URP2gk38v7hE+dxPxgVH3etG7cYzuN42ml1Xet1V5aRsvak2j9BOs3TV4BecbPYrXn1ungzJSFMYz3JSAXNI7f9W+/IRKeXPCbOeKr264w+3X4oVMfeyPodsNN7aDV+wA8/gpByd8Bg11Zhll/cdvnlaXZgNlD+slUpV7DQxaQrEVNnVihDK7HQK/LLvg5I/57a1pu/VHQ9/77MzXho9ZTPfyv/Pw8FY63sEmlG3Tsqvn2dwtdsJNZtqkWqadpW8JW1t3WzfUxf+lFvWPL8Uoz+NNpYXACudocL3PVB6HWj3xs7zpz0aQmzI5eBnK3XscrnANpO4K6hZy7S1pYv4x13Zd7LlpPMadFZLP25718itUx09g6vdGkg21SLVJO2Gb59uLl5st6Svd4slaco3xfJ6GgSznaD4nfS9+6V0v7pq6fRfmrGN2v/MQUC620CRGLLGTeZ9Z3Vqa0sH8U+4anA+sey7ASCrpDGsk3hwDDyDleLpFia8kejtJB6d8Bg1mZXWwM+Gi/GCNTveoUnmEQL0ACVNoZXI00WYMbSdSTPh+b/XoL/U+Unn+wbK8IgUdeKmWokt1Gg+ePXgSZoZotEt9dJokuIZXC22qNlUi1QTtBvWatYUv22n0hfGZBSWhBDGUykQnn+Hdsuf6eqY9mqjkYwRf6jRHH9138mUpfIaIKulSfMel0YzFL0degZfFn+aiMlsAySbyaDXQM+GRuFlawbfy5j9iBSypeIvF6lRWFJmMa2Nl4z8fOeizHXBkWmj5rl5RDQQfBBqNCdc1Tef8NQ6ICSjAqKJ6QhaASuRnsHVyhHJplqkGrxdeITq+K53i+VYi6LWajRoya0UU1IMCOmes3rJtAfMHCr2GZNgu3E+o200YNl5AtASr40mGfloJiux+MhGa9KWj9w2UBUejWIfqOplqmgUEs3yNcU5mvBfKClM/crIgv611tJyMkxJ+YKW7sLO87M9FW0GzJEjcTdLe4JwWKNZ0TefkNTdsR+dzOSMZ3C6hQs3mZ7BVSzBoEl8ZFPtjLBdzREYPkKtLt9tp50z3VJRkujsDJJZDtNSvCh9/9Sbl7U8taxTW10dxK/5i0Xc4c42mnQ+/lunoZzB4a3TZUNBlW2a5fPEHOEa6hM52Qyr76sGTwBCPqKB9AZXrWEW29EKtfnbrgr2rn/bNfvtWO1DEYTf0aBCY+ANT7QuUE9dv3J56ytxZJSv92oIiWb5mtKxmrANSkleQSOCHxoNinJOtdYFId2TVi+ZtnlZj7a6Zjcg0Qz50cy7evAkyqx1JLjero8fjSp7a3/m1T8fzWTXcvRkM2QMvGitvDw9ja4Y3K6B8ciH/StcgrrUzMTbiKIolw+/eVnrM0mLHZmsMMd63qT5fIa0k/1uXfsDbvFTvGJkDnwGYhN3AMotfrRzaev3G12jOWHF4HwgVuBHU69bp8Az+LLkhiCMZ81GvuvDm4cL1+rPUArfLA8Wy5RQk8Zg0j+t1VodhowE2rjHE8ZfVuXi8V0d055LuhPUeAQ5VtvhsIQ15fmU8fVS+Ap06Po/2d53eV6DsDNpLn3xpZs+aX2lEW+czBsNewZf3XeyxczRSddNo9mpCkKCorcnunJiJBt5CbfotaW+konVtSY64Uk8pyjjFCh9Rbi9c1ct3f83zU02lbAE845b3+H/iFnWP3nGVmMKP9X6M0Q0vuv9qHORc7I5ngY/BAn3BN4VhpFbp775xErXwTN45NYpyBl8uRPUdWqWdTq1yIYOkY3X/GRjyrBsys0THTcXP8LT6bv8csnkiKl5vSdjCmPUIppArygNHrt6+b5PJyEr3Hj5dLQfDViBRpMIz+BmOupPGbIJNgWzyNTQbCpazbLOHova7/tPZllzfLcUiQOa8adxMhnmlUqXdC3OfLMRj0/DGs2KwfmE2HdXgirr6BmckJzB4yXsvbVHsmkwB7O9CdR8Pyp5+dnMTq8VXllGYqsJSrlmqJLiUVX+9XFdHbP9Rrvh28kzePjoVCfPYBNU2eDX23tan0g2zUY2QyVZPv09PU1I/yFCrfcLt6iiKJlLgARR3MItnd61JHvf3Jzmm3KNE4Yw2kYzcnSqg0ZT50qV1fyA1aINkk2TkU244ZfdXFhuZzPf8UyuGgBei8WyUx8ahJVOcyG8n2z/D/uU7m6TGsK0aAwP4V1vnWI/OlXA/OtKlU1w67S7tYZk00xkM6TVLP7atlbngOkPA2H/KN1yFFqNNsUXKONKld1TujpafhIapGtOahF0uKuNJn7P4GRVqowA4jG7RLJpIrIZsdWUP2elnG9EpdWERmG/5K3vXOyc2khXs6FGU/EMtu8moFvi9wxOVqVKJJsaI9Dst1GmbG4ul1OLbhiYYbfyHsrst0nfrX1irKESKqZCEkg1t3NJ+j/DkjA1FlnNuwuPmMdf2XcycVJBrBPeOtUc5t12iJpNk2g2w7aa1cXL7XR6RWTBlsaBL5vm0vVvu+k8+5ONotWEWt/xK3pPpJC5F4geykcTgZPj7vdvQ+ejmSwtIdk0AdmEG37JzcW3MIs9Sgh7ixJe7bWaIC8FIcxiRc8rzVu9ZPrjjeDAF+Jz/FW9xxM78yNQytJKROJ3tBtjhYnOkaYkbpDKM2GVKidLItU+j2TTHGQTlNC94FZ3heXYl7uDERWbGwpLEL5/+8pP2p9oBKIxGyE8Yn7gqt53WlbqbsqdQ6VbMCkv4gqbmVK3Tngb1aQexMNJzG/a8Q6SnfaIkuIApUTNa3UbmxeljFDKeoVbPsZEzTfKESpY/CZLYI6oY7/w0gxr2ht+yG1nll8e9AmQ6AhnVF0n4Y9UQTBldPL59obLR1OtBoNk0+Rks/xW/1pm80siTPcpnGyau6XSv3ctylzUaA58ZgOEmthR39g6My2nP8is1GxRjlTDCWw0laNTJU3EVCWawANrsmy1t+dHUkzUN+q7GW+jRmw1A3/PmN1jjJ5aqWozb+xNdMPfa4BAqwFC+rTWc7oWOQ2bnmOYcHJbZ6acfdZzx5klSjUmnAarVFn1QphkQySbBrbZhI50y9aUV9opp8MtRpTuc+gGyne9FZ3nOV9sFFvN7vZGiNtRIeHU/khVuXUysU7lr30ccjnVTNHbE+UcJJsGJZtwwy/t6juM2umNoHVWKRlFaRZFmUUJIS/6nnfEqqWZvzSUrWY3O2NnDWfaem6nZ036SBVqNIZoyt7aDV9wzoXX/9YMeE2UYEY/h2TT4GRzwa3uHZZtf8wtRHQDBeA72bTllb0vd57n/GtY6K4Wi6/efYQazom5gZnCYeu5k57skWrERlNu/JzBtZYPkk0Dkk3osXvhbcUjFFiblBC2VoqaeKUafxTlNtVK/LlUHjzqtuX7v9Bsv9KhhnPsVwZmWMSa2C3VrrdODVapssZrZrfd1Xx17joSGohrL8rhihVryussxzkjsNVEkO6TQCWy2y+XLu1cnLmmmbSa0VIZ0XC2zpSp8JZq0Ifqr8WntGdwtSscyabBNJuRGlCDJ1Lm/FgJH4AGuWtrK0sNitkpqpT/Rz7oHvbvF017rdESY1W7CXa6Fh9lNN6rDWeUjSa43m6ynMHjwa+atrVdoGOMiJpNNWKovs2IVuM+yB37FL9UjKawvdbKSmeo8NzlnYtSKxv9BqoahEPfoeFbKseZ5Zf25PinBU81fqXKarCpRRskmwbSbEZKsxROodR+UEqhQCtac3cprQOtRkv//762Y9uc/CVvLTWzVjN6I/2VH85Y1+KBRmNSorawwDO4iVN51oJkwj6QbBqGbDTJ5YC8eAAwYpU3MCd1jF8uyaC6aK0/YQ2ocnHpTYuzqxopMVYtoBjxNB6YmZZ8LE9jvHWaANBINg1CNuFxtOPm4lks5eSF50YVtSy5k2YmiXnhldf+6fZL31SYKlrN3jQcUS54AJoZjSaoVHm5fW5YmyvXIOtoAhxRs0eQbBpikQyVZlnWY7Gj37+BMHaM70bkLQygmJWiwiufffOSzF2NWJqlVrtjtA0nbW6peGq26VsIc3RKDcU6aZbPkykXVDkRjJFsGoBsQrV++S3eIpqybvFL0dSAAgBppdJMeN4vD/iTfXTuCnPH1RgJzCey+Kt5ZvhI9bmtMzP77/NjoPQ3P/u8/THzbLP5HFWDx2TaINkknWyGkpift0anbO0+zi3nvcIrRZEYy6wjzbhNlJQLOxc790+FG6hqNk8Y13TCV/r36/UGS1tyby5O5ejtajAbqw2STcLJJjzGLO0qLLWzmS5jFIaIjMLGgU/54oGbzrNOqyyWyvFtoourqZ57PcezCagM3mkoN05TvV8MLxMv2XB6bbG/4BNCedwrmGitCeOUMPaycHvnrVq6/28SrwYPaTWf+Hb/fpmss5kw/h7pR2UYJopxC7Qsn7JyccuPu7s1a29HW8ROezCQh/kLEvBEuCk2srn4Ln0J5XBtsc8VhJLaF03by9sH+WwoJ4SQbaVi79w1F+z3bNLJJgwPWLa6/M9OxrkmqmBLrbW00xlzw/LATec5pyUdl4ksdHym/gjERjafuq38Wcqd6/yy30cArJpneNo7lkoTbROitxEJJ9x0fur5JG+qcG7LOvv359n0L7Qk75FRJTE3BeeASs9zP3DLBdMeRVvN3hcTthg/ApGTTXjuN/WMdIocSLj2qOtTygK+ASX9quZg2u+u7e6+G/334L9NXLQGmS5t/cONF7/bHT9c8T0xHAO1pvRvTjr1r5ElMQcQdibNvXL5rq5F6bOTTMDxoY8jRYFAVRs9ioGxz90jYMxLhBB9wa3FA7XiWwghb5TSq3kS88ACTExeCuJrXx3b1ZF5DLUaXJlRIRAf2bxuXMtdWePI5AmiknRvz/AG6oLVpautTOqL5WJUYQla2NmMKTi38qbz7OVINBNcUPhYVQjERzZVTQcbhceY8zr7/1c6lf5PrfUMZQIuTSKJGn6CJOaEEMpovyp5R3Ze0Jp4g3kNXx+7qgMCSDZ1AH1PQ4baxQW3ejdajnWRWyhFU0xtKIm5cN2bVp6X+hRqNQlbCE04HSSbBAk11GoWf6f/PVbGeQyUmq6MAafGOSSGy9oAeVm5haO7Ovb5PRqGE7QQmnQqSDYJEuxwDNR3vVXMsc53C9Gk+9SgpZPJMK/kfr1rceqyqRxsmSDxN/1UkGwSIuKR0iyFw6ht/UIraYPWUbgjBaVZQOttviwctnrJG/6EWk1CFkGTTwPJJiECHk73eYt7u5W2z/WKJQEAtfe0HkqM5Ze9L3YudlagrSYhC2AKTAPJJgFCHuUtfAyxnQ1aaw46iPmrtXwqBeeo/sNgYfuRty9/0yuhT08CYMApNDkCtV7MTQ5XNK83fAP1Xfd+btunRVWaxTjvOZmU5ZdKl61cnPl6mBwqmrfCXhGBnRFAsqnzigijq5fcMnC8baV/7HseC2rN1bo0C4DkVoopJX7T55Y/cGfHtFenYrrPOot7Sg+PZJMQ8S+/1X+AWfxDga2GRGCrMVn40mnmF90LupakOpd19lhdHbONDw9+EIFYEECyiQXmsQcZLs1yi1jAbHafKJcUmADsmn+04naGCt99Dvzts7o63lzExFg1Bxk73AsCSDZ1XCIjBedKD3E79YHIsvAZrcZUTPC8j9+02Pke3kDVUehTeGgkmzoJP0yMtXRV8aPccu4UwtXR2Gq05E6GKSk3q82r53V1dfhoq6mT0Kf4sEg2dVkA2tRUhNO+/nzLm9/0ro2UWbN8N5rIbg0gbcdUTCh9rHNx5k70Fq6LwHHQCPw4ENQqEAg3/PI15U8zx7khUqOwk2bSdx9+7b9/98GDyd0iFybtrmKe2AQRqCUCqNnUEs0q+grtJed/u/R23sIfI6DfGEUKCXN3DkBNEnMqffdDXUuyD6KtpgoBYZPIEECyiQzasTseFZbwfStlt0eo1Qg7bdJ9uj/rWpw6EUyY1RQvOBezqHG4XRBAsolxSSzr1FZXB/EvuKV8EU85N3pRVbYkQQgnYYyDkuqkrvNTP0GtJkZB41BjIoBkE9PCCInm/FUDH+DMWQ9aZbVWNc/AZ17HlGYxKSSE6+VXLnLaMao7JiHjMHtEAMkmhgUSGoSX3Fx8i5W2HwZF3hFdsTlTxpJowpkELeatPC+zua27m+Xb200lTfwgAnVDAMkmYuiHC8119u/P0pkHKWOH+yUTkmAK9UVQF3Q43ad3x8rznHNzWtMcIZWysfhBBOqIAJJNhOCHR6dl17y4P50x40Fu8cOji+gOqEtTQglQWhClwrGrl7/hV2iriVDA2PW4EECyGRdc1TceNgbfWjyQEOteyvlhfrHoAyFW9b2Mr6Wx1aSyGea5/urO8+wlSDTjww9bR4sAkk2N8TXG2GcOApJvJ3LJzX1z7HTmNkr5u71icejoVOMBh7oLtBrKCBAyIH33iFVLW3+DhuFosMZeJ4YAks3EcBvzqdGhAMtWFToot64hlLdIrxxV2oiReWgtnJYMF2XvmpvOcy5FraaGgsWuaoIAks2kYdSkrRvowc+CNpU2zY0T4+yr3LLPEZ4HWktzC8QmPcyeO1CUcQpAXlTuwJFdHfv+GbWaiBHH7seNAJLNuCELH6iQTL4NlPHMPeiKp+1j3v53Z1NKvswd/pbAYc9kp4kkP80ukx5KYu66pc/cvChzPQZbTlio+GCECCDZjANckxy8PT+ixZhH267Q9j5vK85njF/OuH2kkhKk70V/bBqZt7BSaS5c9xfbW5wT8u3Ew8RY4xAqNo0NASSb3UKtSS53JXnmoCvIthlAZnwHdD5Phh3jPn7b1mzKb2lj1F4MlBxDGScm+RUJfOpIBNn2xpyoBhJ8pCh7x61ePm0z2mpi2zs40DgRiI1shrWCNtDP5GteomScr72n5nk4uK1Nj+UId/51ffuSfez325yfJIU8i9nOu0zCK1EuKxVkpIrcNrPrxH0nk7b8snflykVObm5uI9+Um2fqTeEHEUgcAjGRTVCuOgJ32ejw/PQNv3UKLW890FLinYSxd0mhj7MzzvukJw+2MhYVZQkmux4AKGI0mdpXQ9jzy2ktrHSGS89/5E8Dfzr+hxe/28UMfNGtB+x58ghETjahu/ynbi/PVwIWawW9hBAW+s8zSrRUmoT/3tMrmTZGQ1LjoC1znqnGV58SAkorQxytjNGZUunpWso3UUZmcsfhpmacUgqU75lmShPCDINOXgQT6EGDopwZV+FeT5SPXb2k9Wk8Pk0AR3wkVgQi3yzhzciFd+jLMtPhq4PbNTBOKmFBUY8+zjFCDjPTMvHYSkhQ0lxfa2mCG4O7JQiqH0Q98z0tAjNNze001aJ0zk2LMmuxLEusewYHmyACkW+akGwuukN+lnJ6XWmg6BIAK0jkFJg5EvQZSi6ljd5i+NCYeo2tN0nz1CCcljR3B0tf71qSuQw1mgStH5zKHhGIfLMPazZr5SXcoteW+ko+EIgsPqiZ5a2Nl3A2w4Ur1q08zzqrcsVtPo1lD2tmGeG77R4BJJtGWR0afDuTtqQQD8nStlNMoTlMH9EowsN5Bj+JUcOAmk0NEFZa2NkMl0I81v/7/z7xjivf3Y/Hpxrgil3EigCSTaxwT2gw306nLSX850Rp8CQT9zR3o+ab5hH0p5kQnPhQvRBAsqkX8tWN61vptKWFeNJzC2etWrrPH8PMf9U9jq0QgeQggGSTHFmMnonxJ5ImZYT0xKZXXxxYmL983z4kmmQKC2dVHQJINtXhFGerwAfRzqapV3DvK23vPff2S99UwEjuOEWAY0WBAJJNFKhOtE8NgjDKmeWAcAvfevP/XPPPplwuGoMnCig+lyQEkGwSIY3A1dnnTtrSUha08pevXJS+3fyxrVtTk2I0EdPESSACk0AAyWYS4NXiUQ1giISmMmniu94W4ZOOVUvtLYE2M5SYqxbjYB+IQL0RQLKpkwRMgnKiQfJUmpuEWyDVtbTUm/vOhTMH0T5TJ6HgsJEigGQTKbxjdm5iwqQpxG2nHfBK/lNKq8tvXpz6sWmN9pn4BYIjxoMAkk08OJtAbWOCCdKFOuk0+J54VUtx4/bSwHX5C2cOGpIJk6bHNiUcCBGIEQEkm+jBVqBBASXcTqVA+H6ZEHqH5xW+unrJ9N+hNhO9AHCEZCCAZBORHLTWigBRlHPOHQu8kutTQu/ylH/DLedne8ywxjZzxVyQZCi1RURTwW4RgUQggGRTOzEEKUJNdxqA2k46SIUjfW+rEPoereQtq5Zmt4SaDB6Zagc89tQYCCDZTEJOQY5Sc6tEqMlUyrmTAsoAhCc0pbBZK/9eWab3d3Wkfh9oMqNK805iWHwUEWhIBJBs9i42rU02c3NRTcD8Z5A9VFNgnNmEMgakQjBCCf8ZIPAwYdbaP/f89Mkf3niKO0Qy3Gg9pmLm3ofDFohAcyIQI9noz1AK3ywPFsoEqNl8Cf1UuASAEDBZ0LVmhDKg1JAKA2qynDMAv+wbZ7wXAeA55XsbFLDNVO3YYpJahS82N6f5XCSZhMoZpxU3ArGRzUV36cuz02HF4GuQaKoxdhaTf1hJo60Y2pEuZaSXcdLrlbytGvTvGCX/JRU8LwcKT/c9/POX8vn24XCCkSvsgLDGUQcibtHjeIhAvAhETzZaU1Pw7eI7/ROkIOcoTfpo/MXcqkLVJDgHAlspo0Xp+57vetsZgVek1i+6Al5L05YdXR3EH91ZWHzP/A3DC6qCGRtNUQQiJ5umwvV1e3AOgByUB5IHgO62oEAdai9NJWR8magQiI9szEa9Mvqcx5MF6pmDgBw8ozLPTQ9tghkHzdWQz0N3d5syxys8Gk0WYXx+qiIQH9lMVYTxvREBRCBAAMkGFwIigAjEggCSTSww4yCIACKAZINrABFABGJBAMkmFphxEEQAEUCywTWACCACsSCAZBMLzDgIIoAIINngGkAEEIFYEECyiQVmHAQRQASQbHANIAKIQCwIINnEAjMOggggAkg2uAYQAUQgFgSQbGKBGQdBBBABJBtcA4gAIhALAkg2scCMgyACiACSDa4BRAARiAUBJJtYYMZBEAFEAMkG1wAigAjEggCSTSww4yCIACKAZINrABFABGJBAMkmFphxEEQAEUCywTWACCACsSCAZBMLzDgIIoAIINngGkAEEIFYEPj/5Jn8ZfCj4nkAAAAASUVORK5CYII=;fontColor=light-dark(#999999,#EDEDED);fontStyle=1;shadow=1;fontSize=9;" vertex="1" parent="9SuX9ZwHMjtxl8Abcy5n-84">
          <mxGeometry x="23.700000000000045" y="10.5" width="39.6" height="39.6" as="geometry" />
        </mxCell>
        <mxCell id="9SuX9ZwHMjtxl8Abcy5n-85" value="" style="group" vertex="1" connectable="0" parent="1">
          <mxGeometry x="585.25" y="439.00000000000006" width="87" height="76.05999999999995" as="geometry" />
        </mxCell>
        <mxCell id="9SuX9ZwHMjtxl8Abcy5n-73" value="" style="rounded=1;whiteSpace=wrap;html=1;fillColor=#f5f5f5;strokeColor=#666666;fontColor=#333333;" vertex="1" parent="9SuX9ZwHMjtxl8Abcy5n-85">
          <mxGeometry width="87" height="76.06" as="geometry" />
        </mxCell>
        <mxCell id="9SuX9ZwHMjtxl8Abcy5n-74" value="BigQuery" style="sketch=0;html=1;verticalAlign=top;labelPosition=center;verticalLabelPosition=bottom;align=center;spacingTop=-6;fontSize=11;fontStyle=1;fontColor=#333333;shape=image;aspect=fixed;imageAspect=0;image=data:image/svg+xml,PHN2ZyB4bWxucz0iaHR0cDovL3d3dy53My5vcmcvMjAwMC9zdmciIHhtbG5zOnY9Imh0dHBzOi8vdmVjdGEuaW8vbmFubyIgd2lkdGg9IjIwLjAwMTA0NTIyNzA1MDc4IiBoZWlnaHQ9IjIwLjAwMTA0NTIyNzA1MDc4IiBmaWxsLXJ1bGU9ImV2ZW5vZGQiIHZpZXdCb3g9IjAgMCAyMC4wMDEwNDUyMjcwNTA3OCAyMC4wMDEwNDUyMjcwNTA3OCI+JiN4YTsJPHN0eWxlIHR5cGU9InRleHQvY3NzIj4mI3hhOwkuc3Qwe2ZpbGw6I2FlY2JmYTt9JiN4YTsJLnN0MXtmaWxsOiM2NjlkZjY7fSYjeGE7CS5zdDJ7ZmlsbDojNDI4NWY0O30mI3hhOwk8L3N0eWxlPiYjeGE7CTxwYXRoIGNsYXNzPSJzdDAiIGQ9Ik00LjczIDguODN2Mi42M2E0LjkxIDQuOTEgMCAwIDAgMS43MSAxLjc0VjguODN6Ii8+JiN4YTsJPHBhdGggY2xhc3M9InN0MSIgZD0iTTcuODkgNi40MXY3LjUzQTcuNjIgNy42MiAwIDAgMCA5IDE0YTggOCAwIDAgMCAxIDBWNi40MXoiLz4mI3hhOwk8cGF0aCBjbGFzcz0ic3QwIiBkPSJNMTEuNjQgOS44NnYzLjI5YTUgNSAwIDAgMCAxLjctMS44MlY5Ljg2eiIvPiYjeGE7CTxwYXRoIGNsYXNzPSJzdDIiIGQ9Ik0xNS43NCAxNC4zMmwtMS40MiAxLjQyYS40Mi40MiAwIDAgMCAwIC42bDMuNTQgMy41NGEuNDIuNDIgMCAwIDAgLjU5IDBsMS40My0xLjQzYS40Mi40MiAwIDAgMCAwLS41OWwtMy41NC0zLjU0YS40Mi40MiAwIDAgMC0uNiAwIi8+JiN4YTsJPHBhdGggY2xhc3M9InN0MSIgZD0iTTkgMGE5IDkgMCAxIDAgMCAxOEE5IDkgMCAxIDAgOSAwbTAgMTUuNjlhNi42OCA2LjY4IDAgMCAxIC4wMDctMTMuMzYgNi42OCA2LjY4IDAgMCAxIDQuNzI3IDExLjQwM0E2LjY4IDYuNjggMCAwIDEgOSAxNS42OSIvPiYjeGE7PC9zdmc+;fillColor=#f5f5f5;strokeColor=#666666;" vertex="1" parent="9SuX9ZwHMjtxl8Abcy5n-85">
          <mxGeometry x="22.5" y="11.809999999999945" width="42" height="42" as="geometry" />
        </mxCell>
        <mxCell id="9SuX9ZwHMjtxl8Abcy5n-89" value="" style="group" vertex="1" connectable="0" parent="1">
          <mxGeometry x="682.25" y="440.00000000000006" width="87" height="76.05999999999995" as="geometry" />
        </mxCell>
        <mxCell id="9SuX9ZwHMjtxl8Abcy5n-90" value="" style="rounded=1;whiteSpace=wrap;html=1;fillColor=#f5f5f5;strokeColor=#666666;fontColor=#333333;" vertex="1" parent="9SuX9ZwHMjtxl8Abcy5n-89">
          <mxGeometry width="87" height="76.06" as="geometry" />
        </mxCell>
        <mxCell id="9SuX9ZwHMjtxl8Abcy5n-91" value="BigQuery" style="sketch=0;html=1;verticalAlign=top;labelPosition=center;verticalLabelPosition=bottom;align=center;spacingTop=-6;fontSize=11;fontStyle=1;fontColor=#333333;shape=image;aspect=fixed;imageAspect=0;image=data:image/svg+xml,PHN2ZyB4bWxucz0iaHR0cDovL3d3dy53My5vcmcvMjAwMC9zdmciIHhtbG5zOnY9Imh0dHBzOi8vdmVjdGEuaW8vbmFubyIgd2lkdGg9IjIwLjAwMTA0NTIyNzA1MDc4IiBoZWlnaHQ9IjIwLjAwMTA0NTIyNzA1MDc4IiBmaWxsLXJ1bGU9ImV2ZW5vZGQiIHZpZXdCb3g9IjAgMCAyMC4wMDEwNDUyMjcwNTA3OCAyMC4wMDEwNDUyMjcwNTA3OCI+JiN4YTsJPHN0eWxlIHR5cGU9InRleHQvY3NzIj4mI3hhOwkuc3Qwe2ZpbGw6I2FlY2JmYTt9JiN4YTsJLnN0MXtmaWxsOiM2NjlkZjY7fSYjeGE7CS5zdDJ7ZmlsbDojNDI4NWY0O30mI3hhOwk8L3N0eWxlPiYjeGE7CTxwYXRoIGNsYXNzPSJzdDAiIGQ9Ik00LjczIDguODN2Mi42M2E0LjkxIDQuOTEgMCAwIDAgMS43MSAxLjc0VjguODN6Ii8+JiN4YTsJPHBhdGggY2xhc3M9InN0MSIgZD0iTTcuODkgNi40MXY3LjUzQTcuNjIgNy42MiAwIDAgMCA5IDE0YTggOCAwIDAgMCAxIDBWNi40MXoiLz4mI3hhOwk8cGF0aCBjbGFzcz0ic3QwIiBkPSJNMTEuNjQgOS44NnYzLjI5YTUgNSAwIDAgMCAxLjctMS44MlY5Ljg2eiIvPiYjeGE7CTxwYXRoIGNsYXNzPSJzdDIiIGQ9Ik0xNS43NCAxNC4zMmwtMS40MiAxLjQyYS40Mi40MiAwIDAgMCAwIC42bDMuNTQgMy41NGEuNDIuNDIgMCAwIDAgLjU5IDBsMS40My0xLjQzYS40Mi40MiAwIDAgMCAwLS41OWwtMy41NC0zLjU0YS40Mi40MiAwIDAgMC0uNiAwIi8+JiN4YTsJPHBhdGggY2xhc3M9InN0MSIgZD0iTTkgMGE5IDkgMCAxIDAgMCAxOEE5IDkgMCAxIDAgOSAwbTAgMTUuNjlhNi42OCA2LjY4IDAgMCAxIC4wMDctMTMuMzYgNi42OCA2LjY4IDAgMCAxIDQuNzI3IDExLjQwM0E2LjY4IDYuNjggMCAwIDEgOSAxNS42OSIvPiYjeGE7PC9zdmc+;fillColor=#f5f5f5;strokeColor=#666666;" vertex="1" parent="9SuX9ZwHMjtxl8Abcy5n-89">
          <mxGeometry x="22.5" y="11.809999999999945" width="42" height="42" as="geometry" />
        </mxCell>
        <mxCell id="9SuX9ZwHMjtxl8Abcy5n-92" value="" style="group" vertex="1" connectable="0" parent="1">
          <mxGeometry x="777.25" y="441.00000000000006" width="87" height="76.05999999999995" as="geometry" />
        </mxCell>
        <mxCell id="9SuX9ZwHMjtxl8Abcy5n-93" value="" style="rounded=1;whiteSpace=wrap;html=1;fillColor=#f5f5f5;strokeColor=#666666;fontColor=#333333;" vertex="1" parent="9SuX9ZwHMjtxl8Abcy5n-92">
          <mxGeometry width="87" height="76.06" as="geometry" />
        </mxCell>
        <mxCell id="9SuX9ZwHMjtxl8Abcy5n-94" value="BigQuery" style="sketch=0;html=1;verticalAlign=top;labelPosition=center;verticalLabelPosition=bottom;align=center;spacingTop=-6;fontSize=11;fontStyle=1;fontColor=#333333;shape=image;aspect=fixed;imageAspect=0;image=data:image/svg+xml,PHN2ZyB4bWxucz0iaHR0cDovL3d3dy53My5vcmcvMjAwMC9zdmciIHhtbG5zOnY9Imh0dHBzOi8vdmVjdGEuaW8vbmFubyIgd2lkdGg9IjIwLjAwMTA0NTIyNzA1MDc4IiBoZWlnaHQ9IjIwLjAwMTA0NTIyNzA1MDc4IiBmaWxsLXJ1bGU9ImV2ZW5vZGQiIHZpZXdCb3g9IjAgMCAyMC4wMDEwNDUyMjcwNTA3OCAyMC4wMDEwNDUyMjcwNTA3OCI+JiN4YTsJPHN0eWxlIHR5cGU9InRleHQvY3NzIj4mI3hhOwkuc3Qwe2ZpbGw6I2FlY2JmYTt9JiN4YTsJLnN0MXtmaWxsOiM2NjlkZjY7fSYjeGE7CS5zdDJ7ZmlsbDojNDI4NWY0O30mI3hhOwk8L3N0eWxlPiYjeGE7CTxwYXRoIGNsYXNzPSJzdDAiIGQ9Ik00LjczIDguODN2Mi42M2E0LjkxIDQuOTEgMCAwIDAgMS43MSAxLjc0VjguODN6Ii8+JiN4YTsJPHBhdGggY2xhc3M9InN0MSIgZD0iTTcuODkgNi40MXY3LjUzQTcuNjIgNy42MiAwIDAgMCA5IDE0YTggOCAwIDAgMCAxIDBWNi40MXoiLz4mI3hhOwk8cGF0aCBjbGFzcz0ic3QwIiBkPSJNMTEuNjQgOS44NnYzLjI5YTUgNSAwIDAgMCAxLjctMS44MlY5Ljg2eiIvPiYjeGE7CTxwYXRoIGNsYXNzPSJzdDIiIGQ9Ik0xNS43NCAxNC4zMmwtMS40MiAxLjQyYS40Mi40MiAwIDAgMCAwIC42bDMuNTQgMy41NGEuNDIuNDIgMCAwIDAgLjU5IDBsMS40My0xLjQzYS40Mi40MiAwIDAgMCAwLS41OWwtMy41NC0zLjU0YS40Mi40MiAwIDAgMC0uNiAwIi8+JiN4YTsJPHBhdGggY2xhc3M9InN0MSIgZD0iTTkgMGE5IDkgMCAxIDAgMCAxOEE5IDkgMCAxIDAgOSAwbTAgMTUuNjlhNi42OCA2LjY4IDAgMCAxIC4wMDctMTMuMzYgNi42OCA2LjY4IDAgMCAxIDQuNzI3IDExLjQwM0E2LjY4IDYuNjggMCAwIDEgOSAxNS42OSIvPiYjeGE7PC9zdmc+;fillColor=#f5f5f5;strokeColor=#666666;" vertex="1" parent="9SuX9ZwHMjtxl8Abcy5n-92">
          <mxGeometry x="22.5" y="11.809999999999945" width="42" height="42" as="geometry" />
        </mxCell>
        <mxCell id="9SuX9ZwHMjtxl8Abcy5n-96" value="Bronze" style="text;html=1;align=center;verticalAlign=middle;whiteSpace=wrap;rounded=0;" vertex="1" parent="1">
          <mxGeometry x="598.75" y="416" width="60" height="30" as="geometry" />
        </mxCell>
        <mxCell id="9SuX9ZwHMjtxl8Abcy5n-97" value="Silver" style="text;html=1;align=center;verticalAlign=middle;whiteSpace=wrap;rounded=0;" vertex="1" parent="1">
          <mxGeometry x="695.25" y="416" width="60" height="30" as="geometry" />
        </mxCell>
        <mxCell id="9SuX9ZwHMjtxl8Abcy5n-98" value="Gold" style="text;html=1;align=center;verticalAlign=middle;whiteSpace=wrap;rounded=0;" vertex="1" parent="1">
          <mxGeometry x="790.75" y="416" width="60" height="30" as="geometry" />
        </mxCell>
        <mxCell id="9SuX9ZwHMjtxl8Abcy5n-99" style="edgeStyle=orthogonalEdgeStyle;rounded=0;orthogonalLoop=1;jettySize=auto;html=1;entryX=0;entryY=0.5;entryDx=0;entryDy=0;" edge="1" parent="1" source="9SuX9ZwHMjtxl8Abcy5n-59" target="9SuX9ZwHMjtxl8Abcy5n-73">
          <mxGeometry relative="1" as="geometry" />
        </mxCell>
        <mxCell id="9SuX9ZwHMjtxl8Abcy5n-117" value="ET" style="edgeLabel;html=1;align=center;verticalAlign=middle;resizable=0;points=[];" vertex="1" connectable="0" parent="9SuX9ZwHMjtxl8Abcy5n-99">
          <mxGeometry x="0.0439" y="1" relative="1" as="geometry">
            <mxPoint as="offset" />
          </mxGeometry>
        </mxCell>
        <mxCell id="9SuX9ZwHMjtxl8Abcy5n-108" value="" style="group;" vertex="1" connectable="0" parent="1">
          <mxGeometry x="1003" y="82" width="120" height="443.23" as="geometry" />
        </mxCell>
        <mxCell id="9SuX9ZwHMjtxl8Abcy5n-101" value="" style="rounded=1;whiteSpace=wrap;html=1;fillColor=#f5f5f5;strokeColor=#666666;fontColor=#333333;" vertex="1" parent="9SuX9ZwHMjtxl8Abcy5n-108">
          <mxGeometry width="120" height="443.23" as="geometry" />
        </mxCell>
        <mxCell id="9SuX9ZwHMjtxl8Abcy5n-102" value="BI Reports" style="verticalLabelPosition=bottom;sketch=0;aspect=fixed;html=1;verticalAlign=top;strokeColor=none;align=center;outlineConnect=0;shape=mxgraph.citrix.reporting;" vertex="1" parent="9SuX9ZwHMjtxl8Abcy5n-108">
          <mxGeometry x="29.25" y="294" width="61.5" height="69" as="geometry" />
        </mxCell>
        <mxCell id="9SuX9ZwHMjtxl8Abcy5n-103" value="ML" style="editableCssRules=.*;html=1;shape=image;verticalLabelPosition=bottom;labelBackgroundColor=#ffffff;verticalAlign=top;aspect=fixed;imageAspect=0;image=data:image/svg+xml,PHN2ZyB4bWxucz0iaHR0cDovL3d3dy53My5vcmcvMjAwMC9zdmciIHhtbG5zOnY9Imh0dHBzOi8vdmVjdGEuaW8vbmFubyIgd2lkdGg9IjIwIiBoZWlnaHQ9IjE3LjUiIGZpbGwtcnVsZT0iZXZlbm9kZCIgdmlld0JveD0iMCAwIDIwIDE3LjUiPiYjeGE7CTxzdHlsZSB0eXBlPSJ0ZXh0L2NzcyI+JiN4YTsJLnN0MHtmaWxsOiM0Mjg1ZjQ7fSYjeGE7CS5zdDF7ZmlsbDojNjY5ZGY2O30mI3hhOwk8L3N0eWxlPiYjeGE7CTxwYXRoIGNsYXNzPSJzdDAiIGQ9Ik0xOC45MSAxMC42M0wyMCA4Ljc1IDE3LjgyIDVoLTMuMDdsLTEuMDYtMS44NkgxMi41VjEuODhoMS45NGwxLjA2IDEuODdoMS41OUwxNC45IDBoLTQuMjd2NWgxLjczbC43MyAxLjI1aC0yLjQ2djIuNWgyLjI2bDEuMDUtMS44N2gyLjgxbC43MiAxLjI1aC0yLjhMMTMuNjIgMTBoLTIuOTl2NC4zOGgzLjRsLS43MiAxLjI1aC0yLjY4djEuODdoNC4yN2wzLjI4LTUuNjJoLTIuMDlsLS43MyAxLjI1SDEyLjV2LTEuMjVoMi4xNGwuNzQtMS4yNXoiLz4mI3hhOwk8cGF0aCBjbGFzcz0ic3QxIiBkPSJNMS4wOSAxMC42M0wwIDguNzUgMi4xOCA1aDMuMDdsMS4wNi0xLjg2SDcuNVYxLjg4SDUuNTZMNC41IDMuNzVIMi45MUw1LjEgMGg0LjI4djVINy42NGwtLjczIDEuMjVoMi40N3YyLjVINy4xMUw2LjA2IDYuODhIMy4yNWwtLjcyIDEuMjVoMi44TDYuMzggMTBoM3Y0LjM4SDUuOTdsLjcyIDEuMjVoMi42OXYxLjg3SDUuMWwtMy4yOC01LjYyaDIuMDlsLjczIDEuMjVINy41di0xLjI1SDUuMzZsLS43NC0xLjI1eiIvPiYjeGE7PC9zdmc+;" vertex="1" parent="9SuX9ZwHMjtxl8Abcy5n-108">
          <mxGeometry x="28" y="180.99999999999994" width="64" height="57.6" as="geometry" />
        </mxCell>
        <mxCell id="9SuX9ZwHMjtxl8Abcy5n-105" value="" style="points=[];aspect=fixed;html=1;align=center;shadow=0;dashed=0;fillColor=#FF6A00;strokeColor=none;shape=mxgraph.alibaba_cloud.fraud_detection;" vertex="1" parent="9SuX9ZwHMjtxl8Abcy5n-108">
          <mxGeometry x="29.25" y="36.55000000000001" width="61.7" height="61.7" as="geometry" />
        </mxCell>
        <mxCell id="9SuX9ZwHMjtxl8Abcy5n-106" value="Fraud Detection Service" style="text;html=1;align=center;verticalAlign=middle;whiteSpace=wrap;rounded=0;" vertex="1" parent="9SuX9ZwHMjtxl8Abcy5n-108">
          <mxGeometry x="30.1" y="106.00000000000001" width="60" height="30" as="geometry" />
        </mxCell>
        <mxCell id="9SuX9ZwHMjtxl8Abcy5n-110" value="" style="group" vertex="1" connectable="0" parent="1">
          <mxGeometry x="467.25" y="145.00000000000006" width="87" height="76.06" as="geometry" />
        </mxCell>
        <mxCell id="9SuX9ZwHMjtxl8Abcy5n-32" value="" style="rounded=1;whiteSpace=wrap;html=1;fillColor=#f5f5f5;strokeColor=#666666;fontColor=#333333;" vertex="1" parent="9SuX9ZwHMjtxl8Abcy5n-110">
          <mxGeometry width="87" height="76.06" as="geometry" />
        </mxCell>
        <mxCell id="9SuX9ZwHMjtxl8Abcy5n-30" value="Dataflow" style="sketch=0;html=1;verticalAlign=top;labelPosition=center;verticalLabelPosition=bottom;align=center;spacingTop=-6;fontSize=11;fontStyle=1;fontColor=#999999;shape=image;aspect=fixed;imageAspect=0;image=data:image/svg+xml,PHN2ZyB4bWxucz0iaHR0cDovL3d3dy53My5vcmcvMjAwMC9zdmciIHhtbG5zOnY9Imh0dHBzOi8vdmVjdGEuaW8vbmFubyIgd2lkdGg9IjE0LjUxOTk5OTUwNDA4OTM1NSIgaGVpZ2h0PSIyMCIgdmlld0JveD0iMCAwIDE0LjUxOTk5OTUwNDA4OTM1NSAyMCI+JiN4YTsJPHN0eWxlIHR5cGU9InRleHQvY3NzIj4mI3hhOwkuc3Qwe2ZpbGwtcnVsZTpldmVub2RkfSYjeGE7CS5zdDF7ZmlsbDojNjY5ZGY2O30mI3hhOwkuc3Qye2ZpbGw6I2FlY2JmYTt9JiN4YTsJLnN0M3tmaWxsOiM0Mjg1ZjQ7fSYjeGE7CTwvc3R5bGU+JiN4YTsJPGcgY2xhc3M9InN0MCI+JiN4YTsJCTxwYXRoIGNsYXNzPSJzdDEiIGQ9Ik03LjM3IDIuMDNsLTEuNzIuOTYgMS41MiAxLjUtLjAyIDEuNzMgMS4wMi4wMS4wMi0xLjczIDQuMjQgMi41Ni0uMDEgMS4wNyAxLjc3LjAzVjYuMTFMOS4wNSAzLjA0bC0uMjctLjk0eiIvPiYjeGE7CQk8cGF0aCBjbGFzcz0ic3QyIiBkPSJNNy4zNiAyLjAzbC0xLjQyLjM1LS4yOS42MUwuMzkgNS45Mi4zNiA3Ljk3IDIuMTQgOGwuMDItMS4wNyA0LjMxLTIuNDUtLjAyIDEuNzMuODYuMDEuMDYtNC4xOXoiLz4mI3hhOwkJPGcgY2xhc3M9InN0MSI+JiN4YTsJCQk8cGF0aCBkPSJNNy4zNiAyLjAzTDMuOTUgMCAyLjIxLjk1bDMuNDQgMi4wNCAxLjcyLS45NnptLjcxIDExLjc2bC0xLjcyLS4wMi0uMDIgMS43Mi44MiAyLjQ4IDEuNDItLjEyLjI5LS44NSA1LjI3LTIuOTMuMDMtMi4wOS0xLjc5LS4wMi0uMDIgMS4xLTQuMyAyLjQ1eiIvPiYjeGE7CQkJPHBhdGggZD0iTTcuMTUgMTcuOTdsLTMuNDYgMS45NGgtLjA1bC0xLjY2LS45OSAzLjQ5LTEuOTYgMS42OCAxLjAxeiIvPiYjeGE7CQk8L2c+JiN4YTsJCTxwYXRoIGNsYXNzPSJzdDMiIGQ9Ik0xMC44OC4wOWgtLjA1TDcuMzcgMi4wM2wxLjY4IDEuMDEgMy40OS0xLjk2ek0xMC42MiAyMGgtLjA1bC0zLjQyLTIuMDNoMCAwIDBsMS43Mi0uOTYgMy40NCAyLjA0eiIvPiYjeGE7CQk8cGF0aCBjbGFzcz0ic3QyIiBkPSJNLjMzIDEzLjg5di0yaDEuNzZsLS4wMSAxLjA0IDQuMjUgMi41Ni4wMi0xLjcyLjg2LjAxLS4wNiA0LjE4LTEuNjgtMXoiLz4mI3hhOwk8L2c+JiN4YTsJPGNpcmNsZSBjbGFzcz0ic3QyIiBjeD0iMTMuMzgiIGN5PSIxMC4wNCIgcj0iMS4xNCIvPiYjeGE7CTxjaXJjbGUgY2xhc3M9InN0MiIgY3g9IjEuMTQiIGN5PSI5Ljg4IiByPSIxLjE0Ii8+JiN4YTsJPGNpcmNsZSBjbGFzcz0ic3QyIiBjeD0iNy4zMiIgY3k9IjcuOTkiIHI9IjEuMTQiLz4mI3hhOwk8Y2lyY2xlIGNsYXNzPSJzdDIiIGN4PSI3LjIzIiBjeT0iMTIiIHI9IjEuMTQiLz4mI3hhOzwvc3ZnPg==;" vertex="1" parent="9SuX9ZwHMjtxl8Abcy5n-110">
          <mxGeometry x="28" y="15.25" width="31" height="42" as="geometry" />
        </mxCell>
        <mxCell id="9SuX9ZwHMjtxl8Abcy5n-112" value="" style="group" vertex="1" connectable="0" parent="1">
          <mxGeometry x="684.25" y="543" width="87" height="76.06" as="geometry" />
        </mxCell>
        <mxCell id="9SuX9ZwHMjtxl8Abcy5n-113" value="" style="rounded=1;whiteSpace=wrap;html=1;fillColor=#f5f5f5;strokeColor=#666666;fontColor=#333333;" vertex="1" parent="9SuX9ZwHMjtxl8Abcy5n-112">
          <mxGeometry width="87" height="76.06" as="geometry" />
        </mxCell>
        <mxCell id="9SuX9ZwHMjtxl8Abcy5n-114" value="Dataflow" style="sketch=0;html=1;verticalAlign=top;labelPosition=center;verticalLabelPosition=bottom;align=center;spacingTop=-6;fontSize=11;fontStyle=1;fontColor=#999999;shape=image;aspect=fixed;imageAspect=0;image=data:image/svg+xml,PHN2ZyB4bWxucz0iaHR0cDovL3d3dy53My5vcmcvMjAwMC9zdmciIHhtbG5zOnY9Imh0dHBzOi8vdmVjdGEuaW8vbmFubyIgd2lkdGg9IjE0LjUxOTk5OTUwNDA4OTM1NSIgaGVpZ2h0PSIyMCIgdmlld0JveD0iMCAwIDE0LjUxOTk5OTUwNDA4OTM1NSAyMCI+JiN4YTsJPHN0eWxlIHR5cGU9InRleHQvY3NzIj4mI3hhOwkuc3Qwe2ZpbGwtcnVsZTpldmVub2RkfSYjeGE7CS5zdDF7ZmlsbDojNjY5ZGY2O30mI3hhOwkuc3Qye2ZpbGw6I2FlY2JmYTt9JiN4YTsJLnN0M3tmaWxsOiM0Mjg1ZjQ7fSYjeGE7CTwvc3R5bGU+JiN4YTsJPGcgY2xhc3M9InN0MCI+JiN4YTsJCTxwYXRoIGNsYXNzPSJzdDEiIGQ9Ik03LjM3IDIuMDNsLTEuNzIuOTYgMS41MiAxLjUtLjAyIDEuNzMgMS4wMi4wMS4wMi0xLjczIDQuMjQgMi41Ni0uMDEgMS4wNyAxLjc3LjAzVjYuMTFMOS4wNSAzLjA0bC0uMjctLjk0eiIvPiYjeGE7CQk8cGF0aCBjbGFzcz0ic3QyIiBkPSJNNy4zNiAyLjAzbC0xLjQyLjM1LS4yOS42MUwuMzkgNS45Mi4zNiA3Ljk3IDIuMTQgOGwuMDItMS4wNyA0LjMxLTIuNDUtLjAyIDEuNzMuODYuMDEuMDYtNC4xOXoiLz4mI3hhOwkJPGcgY2xhc3M9InN0MSI+JiN4YTsJCQk8cGF0aCBkPSJNNy4zNiAyLjAzTDMuOTUgMCAyLjIxLjk1bDMuNDQgMi4wNCAxLjcyLS45NnptLjcxIDExLjc2bC0xLjcyLS4wMi0uMDIgMS43Mi44MiAyLjQ4IDEuNDItLjEyLjI5LS44NSA1LjI3LTIuOTMuMDMtMi4wOS0xLjc5LS4wMi0uMDIgMS4xLTQuMyAyLjQ1eiIvPiYjeGE7CQkJPHBhdGggZD0iTTcuMTUgMTcuOTdsLTMuNDYgMS45NGgtLjA1bC0xLjY2LS45OSAzLjQ5LTEuOTYgMS42OCAxLjAxeiIvPiYjeGE7CQk8L2c+JiN4YTsJCTxwYXRoIGNsYXNzPSJzdDMiIGQ9Ik0xMC44OC4wOWgtLjA1TDcuMzcgMi4wM2wxLjY4IDEuMDEgMy40OS0xLjk2ek0xMC42MiAyMGgtLjA1bC0zLjQyLTIuMDNoMCAwIDBsMS43Mi0uOTYgMy40NCAyLjA0eiIvPiYjeGE7CQk8cGF0aCBjbGFzcz0ic3QyIiBkPSJNLjMzIDEzLjg5di0yaDEuNzZsLS4wMSAxLjA0IDQuMjUgMi41Ni4wMi0xLjcyLjg2LjAxLS4wNiA0LjE4LTEuNjgtMXoiLz4mI3hhOwk8L2c+JiN4YTsJPGNpcmNsZSBjbGFzcz0ic3QyIiBjeD0iMTMuMzgiIGN5PSIxMC4wNCIgcj0iMS4xNCIvPiYjeGE7CTxjaXJjbGUgY2xhc3M9InN0MiIgY3g9IjEuMTQiIGN5PSI5Ljg4IiByPSIxLjE0Ii8+JiN4YTsJPGNpcmNsZSBjbGFzcz0ic3QyIiBjeD0iNy4zMiIgY3k9IjcuOTkiIHI9IjEuMTQiLz4mI3hhOwk8Y2lyY2xlIGNsYXNzPSJzdDIiIGN4PSI3LjIzIiBjeT0iMTIiIHI9IjEuMTQiLz4mI3hhOzwvc3ZnPg==;" vertex="1" parent="9SuX9ZwHMjtxl8Abcy5n-112">
          <mxGeometry x="28" y="15.25" width="31" height="42" as="geometry" />
        </mxCell>
        <mxCell id="9SuX9ZwHMjtxl8Abcy5n-115" value="" style="group" vertex="1" connectable="0" parent="1">
          <mxGeometry x="326" y="705" width="87" height="76.06" as="geometry" />
        </mxCell>
        <mxCell id="9SuX9ZwHMjtxl8Abcy5n-81" value="" style="rounded=1;whiteSpace=wrap;html=1;fillColor=#f5f5f5;strokeColor=#666666;fontColor=#333333;" vertex="1" parent="9SuX9ZwHMjtxl8Abcy5n-115">
          <mxGeometry width="87" height="76.06" as="geometry" />
        </mxCell>
        <mxCell id="9SuX9ZwHMjtxl8Abcy5n-79" value="Cloud&#xa;Composer" style="sketch=0;html=1;verticalAlign=top;labelPosition=center;verticalLabelPosition=bottom;align=center;spacingTop=-6;fontSize=11;fontStyle=1;fontColor=#999999;shape=image;aspect=fixed;imageAspect=0;image=data:image/svg+xml,PHN2ZyB4bWxucz0iaHR0cDovL3d3dy53My5vcmcvMjAwMC9zdmciIHhtbG5zOnY9Imh0dHBzOi8vdmVjdGEuaW8vbmFubyIgd2lkdGg9IjE0LjY0MDAwMDM0MzMyMjc1NCIgaGVpZ2h0PSIyMCIgdmlld0JveD0iMCAwIDE0LjY0MDAwMDM0MzMyMjc1NCAyMCI+JiN4YTsJPHN0eWxlIHR5cGU9InRleHQvY3NzIj4mI3hhOwkuc3Qwe2ZpbGw6I2FlY2JmYTt9JiN4YTsJLnN0MXtmaWxsOiM0Mjg1ZjQ7fSYjeGE7CTwvc3R5bGU+JiN4YTsJPHBhdGggY2xhc3M9InN0MCIgZD0iTTAgMGgxNC42M3YzLjk0aC01LjN2NS4zM0g1LjM1VjMuOTZIMHoiLz4mI3hhOwk8cGF0aCBjbGFzcz0ic3QxIiBkPSJNMy45NSAxMC42N2g1LjM0VjIwSDUuMzV2LTUuMzVIMFY1LjM3aDMuOTV6TTE0LjY0IDIwSDEwLjdWNS4zNmgzLjk0eiIvPiYjeGE7CTxwYXRoIGNsYXNzPSJzdDAiIGQ9Ik0wIDE2LjA2aDMuOTJWMjBIMHoiLz4mI3hhOzwvc3ZnPg==;" vertex="1" parent="9SuX9ZwHMjtxl8Abcy5n-115">
          <mxGeometry x="29.25" y="9.589999999999975" width="28.5" height="37.41" as="geometry" />
        </mxCell>
        <mxCell id="9SuX9ZwHMjtxl8Abcy5n-119" value="Batch" style="text;html=1;align=center;verticalAlign=middle;whiteSpace=wrap;rounded=0;" vertex="1" parent="1">
          <mxGeometry x="637" y="292.53" width="60" height="30" as="geometry" />
        </mxCell>
        <mxCell id="9SuX9ZwHMjtxl8Abcy5n-121" value="Orchestration" style="text;html=1;align=center;verticalAlign=middle;whiteSpace=wrap;rounded=0;" vertex="1" parent="1">
          <mxGeometry x="339.5" y="788" width="60" height="30" as="geometry" />
        </mxCell>
        <mxCell id="9SuX9ZwHMjtxl8Abcy5n-122" value="" style="group" vertex="1" connectable="0" parent="1">
          <mxGeometry x="437" y="705" width="87" height="76.06" as="geometry" />
        </mxCell>
        <mxCell id="9SuX9ZwHMjtxl8Abcy5n-123" value="" style="rounded=1;whiteSpace=wrap;html=1;fillColor=#f5f5f5;strokeColor=#666666;fontColor=#333333;" vertex="1" parent="9SuX9ZwHMjtxl8Abcy5n-122">
          <mxGeometry width="87" height="76.06" as="geometry" />
        </mxCell>
        <mxCell id="9SuX9ZwHMjtxl8Abcy5n-125" value="Data Loss&#xa;Prevention API" style="sketch=0;html=1;verticalAlign=top;labelPosition=center;verticalLabelPosition=bottom;align=center;spacingTop=-6;fontSize=11;fontStyle=1;fontColor=#999999;shape=image;aspect=fixed;imageAspect=0;image=data:image/svg+xml,PHN2ZyB4bWxucz0iaHR0cDovL3d3dy53My5vcmcvMjAwMC9zdmciIHhtbG5zOnY9Imh0dHBzOi8vdmVjdGEuaW8vbmFubyIgd2lkdGg9IjIwLjAwMTcxNjYxMzc2OTUzIiBoZWlnaHQ9IjE0Ljc5ODEzMTk0Mjc0OTAyMyIgdmlld0JveD0iLTIuOTgwMjMyMjM4NzY5NTMxMmUtOCAtMC4wMDAxMzEyMzc1Mzg4ODA2Njg1OCAyMC4wMDE3MTY2MTM3Njk1MyAxNC43OTgxMzE5NDI3NDkwMjMiPiYjeGE7CTxzdHlsZSB0eXBlPSJ0ZXh0L2NzcyI+JiN4YTsJLnN0MHtmaWxsOiM0Mjg1ZjQ7fSYjeGE7CS5zdDF7ZmlsbDojNjY5ZGY2O30mI3hhOwkuc3Qye2ZpbGw6I2FlY2JmYTt9JiN4YTsJPC9zdHlsZT4mI3hhOwk8cGF0aCBjbGFzcz0ic3QwIiBkPSJNMTIuODYuODM4YTUuNDggNS40OCAwIDAgMC03LjA2IDEuMDYgNS4zMSA1LjMxIDAgMCAwLTEuMzQgMy42IDUuNDkgNS40OSAwIDAgMCAyLjQxIDQuNTNsLS4xNy4yOC0uNTYuMTYtMi4wNiAzLjQ4IDEuNDguODUgMi4wNS0zLjQ4LS4xNi0uNjEuMTQtLjI2YTUuNDkgNS40OSAwIDAgMCA1LjI3LTkuNjF6bS0xLjkyIDguM2EzLjc5IDMuNzkgMCAxIDEgMi42Ni00LjY1aDBhMy44IDMuOCAwIDAgMS0yLjY2IDQuNjV6Ii8+JiN4YTsJPHBhdGggY2xhc3M9InN0MSIgZD0iTS4wNSA0LjE3OGwuMTMtMS4wN2gxLjE4di4zNUguNTJ2LjQ1YS42OC42OCAwIDAgMSAuNzkuMTEuNzguNzggMCAwIDEgLjE3LjUzLjc3Ljc3IDAgMCAxLS4wOS4zNi41My41MyAwIDAgMS0uMjQuMjUuNjUuNjUgMCAwIDEtLjM4LjA5LjczLjczIDAgMCAxLS4zNi0uMDguNjYuNjYgMCAwIDEtLjI2LS4yMS42My42MyAwIDAgMS0uMTUtLjMyaC40MmEuMjcuMjcgMCAwIDAgLjA5LjIuMjUuMjUgMCAwIDAgLjIuMDcuMjMuMjMgMCAwIDAgLjIyLS4xLjQzLjQzIDAgMCAwIC4wNy0uMjkuMzcuMzcgMCAwIDAtLjA5LS4yNy4zMy4zMyAwIDAgMC0uMjUtLjEuNDEuNDEgMCAwIDAtLjI0LjA4aDB6Ii8+JiN4YTsJPHBhdGggY2xhc3M9InN0MiIgZD0iTTMuNDUgNS4yMThIM3YtMS42MWwtLjUxLjE1di0uMzZsLjg4LS4zMWgwek0xIDguMDU4SC41OXYtMS42MWwtLjUuMTV2LS4zNGwuOTEtLjMxaDB6Ii8+JiN4YTsJPHBhdGggY2xhc3M9InN0MSIgZD0iTTMuODYgNy4xODhhMS4xMyAxLjEzIDAgMCAxLS4xOC42Ny43NC43NCAwIDAgMS0xIDBoMGExIDEgMCAwIDEtLjE5LS42NXYtLjM5YTEuMDYgMS4wNiAwIDAgMSAuMTgtLjY3LjczLjczIDAgMCAxIDEgMGgwYTEuMDggMS4wOCAwIDAgMSAuMTkuNjV6bS0uNDItLjQzYS44My44MyAwIDAgMC0uMDctLjM2LjI1LjI1IDAgMCAwLS4yMy0uMTIuMjQuMjQgMCAwIDAtLjIyLjExLjc1Ljc1IDAgMCAwLS4wNy4zNnYuNTFhLjg1Ljg1IDAgMCAwIC4wNy4zOS4yMy4yMyAwIDAgMCAuMjMuMTIuMjMuMjMgMCAwIDAgLjIyLS4xMi43Ny43NyAwIDAgMCAuMDctLjM3eiIvPiYjeGE7CTxwYXRoIGNsYXNzPSJzdDIiIGQ9Ik0xNy4xMyA1LjEzOGgtLjQxdi0xLjYybC0uNTEuMTZ2LS4zNGwuODgtLjMyaDB6Ii8+JiN4YTsJPHBhdGggY2xhc3M9InN0MSIgZD0iTTE4LjYyIDQuMDk4bC4xMy0xLjA3aDEuMTh2LjM3aC0uODRsLS4wOS40M2EuNjUuNjUgMCAwIDEgLjMxLS4wOC42My42MyAwIDAgMSAuNDguMTkuNzQuNzQgMCAwIDEgLjE3LjUyLjgxLjgxIDAgMCAxLS4wOS4zNy42LjYgMCAwIDEtLjI1LjI1Ljc5Ljc5IDAgMCAxLS4zOC4wOS44NS44NSAwIDAgMS0uMzUtLjA4LjYyLjYyIDAgMCAxLS4yNi0uMjIuNTguNTggMCAwIDEtLjEtLjMySDE5YS4zNS4zNSAwIDAgMCAuMS4yMS4yOS4yOSAwIDAgMCAuMi4wNy4yNi4yNiAwIDAgMCAuMjItLjEuNDQuNDQgMCAwIDAgLjA2LS4zMy40MS40MSAwIDAgMC0uMDktLjI4LjM0LjM0IDAgMCAwLS4yNS0uMDkuMzQuMzQgMCAwIDAtLjI0LjA3aDB6bS0xLjA4IDMuMDlhMS4xMyAxLjEzIDAgMCAxLS4xOC42Ny43NC43NCAwIDAgMS0xIDBoMGExIDEgMCAwIDEtLjE5LS42NXYtLjM5YTEuMDYgMS4wNiAwIDAgMSAuMTgtLjY3LjczLjczIDAgMCAxIDEgMGgwYTEuMDggMS4wOCAwIDAgMSAuMTkuNjV6bS0uNDItLjQzYS44My44MyAwIDAgMC0uMDctLjM4LjI1LjI1IDAgMCAwLS4yMy0uMTIuMjQuMjQgMCAwIDAtLjIyLjExLjc1Ljc1IDAgMCAwLS4wNy4zNnYuNTFhLjg1Ljg1IDAgMCAwIC4wNy4zOS4yMy4yMyAwIDAgMCAuMjMuMTIuMjMuMjMgMCAwIDAgLjIyLS4xMi45LjkgMCAwIDAgLjA3LS4zN3oiLz4mI3hhOwk8cGF0aCBjbGFzcz0ic3QyIiBkPSJNMTguNjIgNy4wMThsLjEzLTEuMDdoMS4xOHYuMzVoLS44NGwtLjA1LjQ1YS42NS42NSAwIDAgMSAuMzEtLjA4LjYzLjYzIDAgMCAxIC40OC4xOS43OC43OCAwIDAgMSAuMTcuNTQuNzcuNzcgMCAwIDEtLjA5LjM2LjUxLjUxIDAgMCAxLS4yNS4yNS42OS42OSAwIDAgMS0uMzguMDkuNzIuNzIgMCAwIDEtLjM1LS4wOC41OS41OSAwIDAgMS0uMjYtLjIxLjYzLjYzIDAgMCAxLS4xLS4zMkgxOWEuMzIuMzIgMCAwIDAgLjEuMi4yNS4yNSAwIDAgMCAuMi4wNy4yMy4yMyAwIDAgMCAuMjItLjEuNDMuNDMgMCAwIDAgLjA4LS4yOS4zNy4zNyAwIDAgMC0uMDktLjI3LjMxLjMxIDAgMCAwLS4yNS0uMS4zNS4zNSAwIDAgMC0uMjQuMDhoMHoiLz4mI3hhOwk8cGF0aCBjbGFzcz0ic3QxIiBkPSJNNy43MyA3LjUwOHYtLjk0YS44Ni44NiAwIDAgMSAuMzUtLjYyIDIuNDMgMi40MyAwIDAgMSAuODMtLjQzIDIuODcgMi44NyAwIDAgMSAyLjQyLjI4IDEuMDUgMS4wNSAwIDAgMSAuMjcuMi45LjkgMCAwIDEgLjMuNzV2Ljc2em0yLjA4LTIuNjFhMS4wOCAxLjA4IDAgMSAxIDEuMDgtMS4wN2gwYTEuMDkgMS4wOSAwIDAgMS0xLjA4IDEuMDd6Ii8+JiN4YTs8L3N2Zz4=;" vertex="1" parent="9SuX9ZwHMjtxl8Abcy5n-122">
          <mxGeometry x="22.5" y="13" width="42" height="32" as="geometry" />
        </mxCell>
        <mxCell id="9SuX9ZwHMjtxl8Abcy5n-126" value="Identify Sensitive Data" style="text;html=1;align=center;verticalAlign=middle;whiteSpace=wrap;rounded=0;" vertex="1" parent="1">
          <mxGeometry x="450.5" y="794" width="60" height="30" as="geometry" />
        </mxCell>
        <mxCell id="9SuX9ZwHMjtxl8Abcy5n-128" value="" style="rounded=1;whiteSpace=wrap;html=1;fillColor=#f5f5f5;strokeColor=#666666;fontColor=#333333;" vertex="1" parent="1">
          <mxGeometry x="554" y="705" width="87" height="76.06" as="geometry" />
        </mxCell>
        <mxCell id="9SuX9ZwHMjtxl8Abcy5n-127" value="Dataplex" style="sketch=0;html=1;verticalAlign=top;labelPosition=center;verticalLabelPosition=bottom;align=center;spacingTop=-6;fontSize=11;fontStyle=1;fontColor=#999999;shape=image;aspect=fixed;imageAspect=0;image=data:image/svg+xml,PHN2ZyB4bWxucz0iaHR0cDovL3d3dy53My5vcmcvMjAwMC9zdmciIGlkPSJzdmcxMTkyNDEiIHZlcnNpb249IjEuMSIgdmlld0JveD0iMCAwIDI2NS4yMzA0NyAyODcuNzcxNDgiIGhlaWdodD0iMjg3Ljc3MTQ4bW0iIHdpZHRoPSIyNjUuMjMwNDdtbSI+JiN4YTsgICYjeGE7ICA8ZGVmcyBpZD0iZGVmczExOTIzOCIvPiYjeGE7ICA8ZyB0cmFuc2Zvcm09InRyYW5zbGF0ZSgyNS41NDQ5MjIsLTUuNzEyODkwNikiIGlkPSJsYXllcjEiPiYjeGE7ICAgIDxwYXRoIGQ9Im0gMjExLjAwMzkxLDE4OS44NzMwNSBjIC0xNS43NDAzMSwwIC0yOC42ODM2LDEyLjk0MzI5IC0yOC42ODM2LDI4LjY4MzU5IDAsMTUuNzQwMzEgMTIuOTQzMjksMjguNjgxNjQgMjguNjgzNiwyOC42ODE2NCAxNS43NDAzLDAgMjguNjgxNjQsLTEyLjk0MTMzIDI4LjY4MTY0LC0yOC42ODE2NCAwLC0xNS43NDAzIC0xMi45NDEzNCwtMjguNjgzNTkgLTI4LjY4MTY0LC0yOC42ODM1OSB6IE0gMy4wMzMyMDMxLDUxLjQ0OTIxOSBjIC0xNS42ODMyMDUxLDAgLTI4LjU3ODEyNTEsMTIuODk0OTIgLTI4LjU3ODEyNTEsMjguNTc4MTI1IDRlLTYsMTUuNjgzMjAyIDEyLjg5NDkyMywyOC41ODAwNzYgMjguNTc4MTI1MSwyOC41ODAwNzYgMTUuNjgzMjAxOSwwIDI4LjU4MDA3MzksLTEyLjg5Njg3NCAyOC41ODAwNzc5LC0yOC41ODAwNzYgMCwtMTUuNjgzMjA1IC0xMi44OTY4NzMsLTI4LjU3ODEyNSAtMjguNTgwMDc3OSwtMjguNTc4MTI1IHogTSAxMDcuNzcxNDgsNS43MTI4OTA2IDQ1LjU4Mzk4NCw0Mi4zODY3MTkgNTcuMjY3NTc4LDYyLjE5OTIxOSA5Ni40NDMzNTksMzkuMDk1NzAzIFYgMTI4LjI1MzkxIEwgMjQuOTE5OTIyLDgwLjAyNzM0NCAxMi4wNjA1NDcsOTkuMDk3NjU2IDg2LjY3NTc4MSwxNDkuNDA4MiAxMy45OTQxNDEsMTk4LjIwMTE3IFYgMTMyLjU5NTcgSCAtOS4wMDU4NTk0IHYgOTAuOTUzMTMgbCAxMTcuMTA1NDY5NCw2OS45MzU1NCA1OS42Nzc3MywtMzUuOTc0NiAtMTEuODc1LC0xOS42OTcyNyAtMzYuNDU4OTgsMjEuOTc2NTYgdiAtODguMjg3MTEgbCA3MC4wMDk3Niw0Ny4yMDUwOCAxMi44NTc0MywtMTkuMDcwMzEgLTc0LjQzMTY0LC01MC4xODc1IDczLjkxMDE1LC00OS42MTcxODkgdiA2Ni41ODAwNzkgaCAyMyBWIDc0LjkxNDA2MiBaIG0gMTEuNjcxODgsMzMuNjIzMDQ2NCA2OS43NSw0MS4yNDgwNDcgLTY5Ljc1LDQ2LjgyNjE3NiB6IE0gOTYuNDQzMzU5LDE3MC41NTQ2OSB2IDg5LjE3OTY4IEwgMjYuMTQyNTc4LDIxNy43NSBaIiBzdHlsZT0iY29sb3I6IzAwMDAwMDtvcGFjaXR5OjE7ZmlsbDojNTk4NmYyO2ZpbGwtb3BhY2l0eToxO3N0cm9rZS1saW5lam9pbjpyb3VuZDstaW5rc2NhcGUtc3Ryb2tlOm5vbmUiIGlkPSJwYXRoMTE5NDA3LTQiLz4mI3hhOyAgICA8cGF0aCBkPSJtIDMuMDMzMTk3Niw2OC40NDkyMTkgYyA2LjQ5NTczNjcsMCAxMS41ODAwODM0LDUuMDgyMzkzIDExLjU4MDA4MzQsMTEuNTc4MTI1IDAsNi40OTU3MzEgLTUuMDg0MzQ2NywxMS41ODAwNzggLTExLjU4MDA4MzQsMTEuNTgwMDc4IC02LjQ5NTcyNjcsMCAtMTEuNTc4MTIzNCwtNS4wODQzNDcgLTExLjU3ODEyMzQsLTExLjU4MDA3OCAwLC02LjQ5NTczMiA1LjA4MjM5NjcsLTExLjU3ODEyNSAxMS41NzgxMjM0LC0xMS41NzgxMjUgeiBNIDIxMS4wMDM5MSwyMDYuODczMDUgYyA2LjU1MjgzLDAgMTEuNjgxNjQsNS4xMzA3NiAxMS42ODE2NCwxMS42ODM1OSAwLDYuNTUyODMgLTUuMTI4ODEsMTEuNjgxNjQgLTExLjY4MTY0LDExLjY4MTY0IC02LjU1Mjg0LDAgLTExLjY4MzYsLTUuMTI4ODEgLTExLjY4MzYsLTExLjY4MTY0IDAsLTYuNTUyODMgNS4xMzA3NiwtMTEuNjgzNTkgMTEuNjgzNiwtMTEuNjgzNTkgeiBNIDEwNy43NjM2Nyw5OC41NTQ2ODcgYyAtMjcuNzcyNTc4LDNlLTYgLTUwLjUyMzQzMywyMi43NTA4NjMgLTUwLjUyMzQzMyw1MC41MjM0MzMgMCwyNy43NzI1OCAyMi43NTA4NTUsNTAuNTIxNDkgNTAuNTIzNDMzLDUwLjUyMTQ5IDI3Ljc3MjU4LDAgNTAuNTIzNDQsLTIyLjc0ODkxIDUwLjUyMzQ0LC01MC41MjE0OSAwLC0yNy43NzI1NyAtMjIuNzUwODYsLTUwLjUyMzQzNyAtNTAuNTIzNDQsLTUwLjUyMzQzMyB6IiBzdHlsZT0iY29sb3I6IzAwMDAwMDtvcGFjaXR5OjE7ZmlsbDojZmZmZmZmO2ZpbGwtb3BhY2l0eToxO3N0cm9rZS1saW5lam9pbjpyb3VuZDstaW5rc2NhcGUtc3Ryb2tlOm5vbmUiIGlkPSJwYXRoMTM3Mjg5Ii8+JiN4YTsgICAgPHBhdGggaWQ9InBhdGgxMjAyMDMiIGQ9Im0gMTA3Ljc2MzY3LDEyMC41NTQ2OSBjIDE1Ljg4MjkxLC0xMGUtNiAyOC41MjM0NCwxMi42NDA1MyAyOC41MjM0NCwyOC41MjM0MyAwLDE1Ljg4MjkxIC0xMi42NDA1MywyOC41MjE0OSAtMjguNTIzNDQsMjguNTIxNDkgLTE1Ljg4MjkwNCwwIC0yOC41MjM0MzgsLTEyLjYzODU4IC0yOC41MjM0MzgsLTI4LjUyMTQ5IDAsLTE1Ljg4MjkgMTIuNjQwNTM0LC0yOC41MjM0MyAyOC41MjM0MzgsLTI4LjUyMzQzIHoiIHN0eWxlPSJjb2xvcjojMDAwMDAwO29wYWNpdHk6MTtmaWxsOiM1OTg2ZjI7ZmlsbC1vcGFjaXR5OjE7c3Ryb2tlLWxpbmVqb2luOnJvdW5kOy1pbmtzY2FwZS1zdHJva2U6bm9uZSIvPiYjeGE7ICA8L2c+JiN4YTs8L3N2Zz4=;" vertex="1" parent="1">
          <mxGeometry x="579" y="717" width="39" height="42" as="geometry" />
        </mxCell>
        <mxCell id="9SuX9ZwHMjtxl8Abcy5n-129" value="Data Governance" style="text;html=1;align=center;verticalAlign=middle;whiteSpace=wrap;rounded=0;" vertex="1" parent="1">
          <mxGeometry x="568.5" y="788" width="60" height="30" as="geometry" />
        </mxCell>
        <mxCell id="9SuX9ZwHMjtxl8Abcy5n-131" value="" style="rounded=1;whiteSpace=wrap;html=1;fillColor=#f5f5f5;strokeColor=#666666;fontColor=#333333;" vertex="1" parent="1">
          <mxGeometry x="663.75" y="705" width="87" height="76.06" as="geometry" />
        </mxCell>
        <mxCell id="9SuX9ZwHMjtxl8Abcy5n-130" value="Cloud&#xa;Logging" style="sketch=0;html=1;verticalAlign=top;labelPosition=center;verticalLabelPosition=bottom;align=center;spacingTop=-6;fontSize=11;fontStyle=1;fontColor=#999999;shape=image;aspect=fixed;imageAspect=0;image=data:image/svg+xml,PHN2ZyB4bWxucz0iaHR0cDovL3d3dy53My5vcmcvMjAwMC9zdmciIHhtbG5zOnY9Imh0dHBzOi8vdmVjdGEuaW8vbmFubyIgd2lkdGg9IjIwIiBoZWlnaHQ9IjE5IiB2aWV3Qm94PSIwIDAgMjAgMTkiPiYjeGE7CTxzdHlsZSB0eXBlPSJ0ZXh0L2NzcyI+JiN4YTsJLnN0MHtmaWxsOiM0Mjg1ZjQ7fSYjeGE7CS5zdDF7ZmlsbDojNjY5ZGY2O30mI3hhOwkuc3Qye2ZpbGw6I2FlY2JmYTt9JiN4YTsJPC9zdHlsZT4mI3hhOwk8ZyBjbGFzcz0ic3QwIj4mI3hhOwkJPHBhdGggZD0iTTQgOWg0djJINHptLTIgN2g2djJIMnoiLz4mI3hhOwkJPHBhdGggZD0iTTQgNEgydjEyaDJ6Ii8+JiN4YTsJPC9nPiYjeGE7CTxwYXRoIGNsYXNzPSJzdDEiIGQ9Ik0yMCAxSDd2NGgxM3ptMCA3SDd2NGgxM3ptMCA3SDd2NGgxM3oiLz4mI3hhOwk8cGF0aCBjbGFzcz0ic3QyIiBkPSJNNiAwSDB2Nmg2eiIvPiYjeGE7PC9zdmc+;" vertex="1" parent="1">
          <mxGeometry x="686.25" y="712" width="42" height="40" as="geometry" />
        </mxCell>
        <mxCell id="9SuX9ZwHMjtxl8Abcy5n-132" value="Logs" style="text;html=1;align=center;verticalAlign=middle;whiteSpace=wrap;rounded=0;" vertex="1" parent="1">
          <mxGeometry x="677.25" y="785" width="60" height="30" as="geometry" />
        </mxCell>
        <mxCell id="9SuX9ZwHMjtxl8Abcy5n-134" value="" style="rounded=1;whiteSpace=wrap;html=1;fillColor=#f5f5f5;strokeColor=#666666;fontColor=#333333;" vertex="1" parent="1">
          <mxGeometry x="780" y="705" width="87" height="76.06" as="geometry" />
        </mxCell>
        <mxCell id="9SuX9ZwHMjtxl8Abcy5n-133" value="Cloud&#xa;Monitoring" style="sketch=0;html=1;verticalAlign=top;labelPosition=center;verticalLabelPosition=bottom;align=center;spacingTop=-6;fontSize=11;fontStyle=1;fontColor=#999999;shape=image;aspect=fixed;imageAspect=0;image=data:image/svg+xml,PHN2ZyB4bWxucz0iaHR0cDovL3d3dy53My5vcmcvMjAwMC9zdmciIHhtbG5zOnY9Imh0dHBzOi8vdmVjdGEuaW8vbmFubyIgd2lkdGg9IjIwIiBoZWlnaHQ9IjEzLjUyOTk5OTczMjk3MTE5MSIgdmlld0JveD0iLTIuOTMyMDk3ODk3ODEyMDE0ZS05IC01LjI1ODAxNTA0MTgzNzk1NmUtMTUgMjAgMTMuNTI5OTk5NzMyOTcxMTkxIj4mI3hhOwk8c3R5bGUgdHlwZT0idGV4dC9jc3MiPiYjeGE7CS5zdDB7ZmlsbDojNDI4NWY0O30mI3hhOwkuc3Qxe2ZpbGw6IzY2OWRmNjt9JiN4YTsJPC9zdHlsZT4mI3hhOwk8cGF0aCBjbGFzcz0ic3QxIiBkPSJNOC44MyAxMC41OGgyLjMzdjIuNjRIOC44M3oiLz4mI3hhOwk8cGF0aCBjbGFzcz0ic3QwIiBkPSJNMTYuNDggOC42MWEuNTYuNTYgMCAwIDEtLjQtLjE3TDEyIDQuMjEgOS4yNiA3LjFhLjU3LjU3IDAgMCAxLS43Ni4wNUw2LjQyIDUuNDdsLTIuMiAyLjkyYS41Ni41NiAwIDAgMS0uNDUuMjJIMHYxLjcxYS43NS43NSAwIDAgMCAuNzQuNzVoMTguNTJhLjc1Ljc1IDAgMCAwIC43NC0uNzVWOC42MXoiLz4mI3hhOwk8cGF0aCBjbGFzcz0ic3QxIiBkPSJNMy41IDcuNWwyLjM4LTMuMTZhLjU1LjU1IDAgMCAxIC4zNy0uMjIuNjMuNjMgMCAwIDEgLjQyLjEybDIuMTIgMS43MiAyLjgtMi45NGEuNTQuNTQgMCAwIDEgLjQtLjE3aDBhLjU0LjU0IDAgMCAxIC40LjE3bDQuMzMgNC40OEgyMFYuNzRhLjc0Ljc0IDAgMCAwLS43NC0uNzRILjc0QS43NC43NCAwIDAgMCAwIC43NHY2LjgxeiIvPiYjeGE7CTxyZWN0IGNsYXNzPSJzdDAiIHg9IjYuNjciIHk9IjEyLjkyIiB3aWR0aD0iNi42NyIgaGVpZ2h0PSIuNjEiIHJ4PSIuMyIvPiYjeGE7PC9zdmc+;" vertex="1" parent="1">
          <mxGeometry x="802.5" y="717" width="42" height="29" as="geometry" />
        </mxCell>
        <mxCell id="9SuX9ZwHMjtxl8Abcy5n-135" value="Alerts" style="text;html=1;align=center;verticalAlign=middle;whiteSpace=wrap;rounded=0;" vertex="1" parent="1">
          <mxGeometry x="793.5" y="785" width="60" height="30" as="geometry" />
        </mxCell>
      </root>
    </mxGraphModel>
  </diagram>
</mxfile>
